<?xml version="1.0" encoding="utf-8"?>
<!-- Generator: Adobe Illustrator 24.3.0, SVG Export Plug-In . SVG Version: 6.00 Build 0)  -->
<svg version="1.1" id="Capa_1" xmlns="http://www.w3.org/2000/svg" xmlns:xlink="http://www.w3.org/1999/xlink" x="0px" y="0px"
	 viewBox="0 0 851 660" style="enable-background:new 0 0 851 660;" xml:space="preserve">
<style type="text/css">
	.st0{fill:#DCDCDC;}
	.st1{fill:#E9E8E8;}
	.st2{fill:#CCCCCC;}
	.st3{fill:#CDCCCC;}
	.st4{fill:#969595;}
	.st5{fill:#DAD9D9;}
	.st6{fill:#CECDCD;}
	.st7{fill:#797778;}
	.st8{fill:#C3C3C2;}
	.st9{fill:#D2D2D1;}
	.st10{fill:#D1D0D0;}
	.st11{fill:#D9D9D9;}
	.st12{fill:#6F6D6E;}
	.st13{fill:#DFE0E0;}
	.st14{fill:#545252;}
	.st15{fill:#BEBEBE;}
	.st16{fill:#605F5F;}
	.st17{fill:#A6A6A6;}
	.st18{fill:#DADADA;}
	.st19{fill:#AEAEAE;}
	.st20{fill:#A3A2A4;}
	.st21{fill:#BABABA;}
	.st22{fill:#464545;}
	.st23{fill:#757473;}
	.st24{fill:#515152;}
	.st25{fill:#5A5959;}
	.st26{fill:#6A6867;}
	.st27{fill:#797777;}
	.st28{fill:#828182;}
	.st29{fill:#FBFAFA;}
	.st30{fill:#D5D4D4;}
	.st31{fill:#F8F7F7;}
	.st32{fill:#6B6867;}
	.st33{fill:#5D5C5C;}
	.st34{fill:#F0EFEF;}
	.st35{fill:#B4B3B3;}
	.st36{fill:#151414;}
	.st37{fill:#A6A6A5;}
	.st38{fill:#F9FAF9;}
	.st39{fill:#EFEDEC;}
	.st40{fill:#5D5C5B;}
	.st41{fill:#C6C5C5;}
	.st42{fill:#F5F5F4;}
	.st43{fill:#100F0F;}
	.st44{fill:#C5C5C4;}
	.st45{fill:#999999;}
	.st46{fill:#484746;}
	.st47{fill:#363535;}
	.st48{fill:#3F3D3E;}
	.st49{fill:#8A8788;}
	.st50{fill:#DFDEDE;}
	.st51{fill:#333132;}
	.st52{fill:#A1A1A0;}
	.st53{fill:#807E7A;}
	.st54{fill:#B3B2B3;}
	.st55{fill:#929191;}
	.st56{fill:#008D43;}
	.st57{fill:#008D42;}
	.st58{fill:#F4F4F3;}
	.st59{fill:#959492;}
	.st60{fill:#4D4C4C;}
	.st61{fill:#4B4A4A;}
	.st62{fill:#2F2F2F;}
	.st63{fill:#979696;}
	.st64{fill:#696968;}
	.st65{fill:#018E42;}
	.st66{fill:#727071;}
	.st67{fill:#504F4F;}
	.st68{fill:#FDFDFC;}
	.st69{fill:#FEFDFD;}
	.st70{fill:#FDFCFC;}
	.st71{fill:#F8F9F7;}
	.st72{fill:#0B9545;}
	.st73{fill:#099243;}
</style>
<g id="Capa_2_1_">
	<g id="Capa_1-2">
		<path class="st0" d="M13.4,401.7c-2.4-1.1-1.3-4.2-3.1-5.7c0-3.7-1.5-7-3-10.2c-0.6-1.3,1-3.2-1.2-3.9v-12.5c1.7-1.3,1.7-3.3,2-5
			c0.8-4.8,2.5-9.2,3.8-13.8c0-0.1,0.3,0,0.5,0c3.9-5.3,6.3-11.5,9.2-17.4c2.3-4.5,5-8.7,7.2-13.2c0.6-1.3,1.3-2.5,3.1-2.1
			c2.8,1.4,2.6,3.9,2.6,6.4c-0.7,5.2-4.1,9.1-6.6,13.4c-6.1,10.4-10.4,21.4-11.8,33.5c-0.4,3.8-0.2,7.6,0.5,11.3
			c2.4,13.3,7.3,25.5,16.4,35.7c7.9,8.9,18.3,13.4,29.4,16.7c2.6,0.8,5.4,1.3,8,2.3c2.2,0.8,4.7,0.3,6.8,1.7
			c4.2,2.8,8.8,2.7,13.5,2.7H258c2.1-0.1,4.2,0,6.3,0.1c4.6,0.4,9.5-1.4,13.8,1.5c-0.1,0.3-0.2,0.8-0.4,0.9
			c-2.1,0.5-4.4-0.3-6.3,1.2c-5.5-0.6-10.7,1.2-16.2,1.1c-35.4-0.2-70.9-0.2-106.3,0c-4.8,0-9.4-1.6-14.2-1.2
			c-5,0.4-10.1,0.1-15.1,0.1c-4.9,0-9.7,0.1-14.6,0c-4.3-0.2-8.3,1.6-12.6,1.2c-4.2-0.4-8.3-0.4-12.5,0c-2.6,0.2-4.8-1.3-7.4-1.2
			c-2.3,0.1-4.7,0.8-6.9-0.9c-0.8-0.6-2.4,0-3.6-0.1c-0.4,0-0.8-0.3-0.9-0.7c0-0.1,0-0.2,0-0.3c0.1-0.1,0.2-0.3,0.4-0.4
			c0.1-0.1,0.3-0.2,0.4-0.3c-2.6-0.7-5-2.1-7.6-2.8c-13.7-4-23.9-13.1-32.4-23.9c-3.5-4.4-6.7-9.6-7.1-15.7
			C14.9,401.4,14.6,402,13.4,401.7z"/>
		<path class="st1" d="M6.1,479.9l5.2-3.1c2,1.9,1.4,4.5,1.6,6.8c0.4,7.9-0.9,15.8,0.7,23.7c0.6,23,0.2,46.1,0.3,69.1
			c0,8.7,0.3,17.3-0.2,26c-1.6,5.8-0.5,11.7-0.8,17.5c-0.1,2.4,0.4,4.9-1.5,6.9c-1.4,0-1-1-1-1.8c0.2-3.5-1.8-6.4-2.7-9.6
			c-0.2-0.7-0.8-1.1-1.5-1.1V479.9z"/>
		<path class="st2" d="M278.1,443.4h-13.5c-1.3-4.3,2.4-5.1,4.8-6.9c0.9-0.5,1.9-0.9,2.9-1.3c15.8-3.6,29.6-10.6,40.7-22.7
			c4.9-5.4,9-11.5,12.2-18c12-23.8,23.4-48,35.6-71.7c12.8-25,24.4-50.5,37.7-75.3c10.8-22.1,22.2-43.9,32.8-66.1
			c2.7-5.6,6-8.6,12.7-8.3c12.1,0.5,24.3,0.1,36.5,0.2c2.1,0,5.2-0.9,5.2,3c-11.7,18.5-21.1,38.2-31.8,57.2
			c-13.1,23.3-25.8,46.7-39,69.9c-10.5,18.3-20.6,36.9-31,55.3c-7.9,14.1-15.7,28.1-23.4,42.2c-3,4.9-6.1,9.9-8.9,14.9
			c-1,1.9-1.8,4.2-4.8,3.5c-2.9-6,2.2-10.3,3.4-15.5c0.5-1.7,0.9-3.5,1-5.4c2.1-4,5-7.8,6.8-11.8c1.8-4,5.2-7.1,5.8-11.7
			c4.5-5.6,7.1-12.3,10.9-18.5c2.6-4.2,5.5-8.3,6.8-13.3c0.1-0.2-0.1-0.4,0-0.5c1.4-1.6,3.3-2.8,3.4-5.4c0-2.1,2-3.4,3.1-4.9
			c2-2.7,3.1-5.7,4.8-8.5c2.9-4.6,4.8-9.9,8.2-14.3c0.8-1,0.9-2.4,1.5-3.5c3.5-5.8,6.2-12.1,10.3-17.6c1-4.7,4-8.4,6.4-12.5
			c4.3-7.4,8.2-15,12.4-22.5c4.9-8.7,10.2-17.2,14.6-26.3c2.3-1.6,2.2-4.6,4-6.7c1.6-1.9,2.2-4.6,3.8-6.7c1.6-2.1,2.3-4.6,3.6-6.8
			c4-6.7,7.3-13.8,11.9-20.1c0.9-1.3,2.4-2.9,1.3-5.2c-4.2,0-8.5,0.1-12.8,0c-4-0.1-8.2,0.7-12.6-1.5c-0.8,1-1.6,2.2-2.5,3.2
			c-1.4,1.6-3.4,2.8-3.3,5.4c-2.4,2.7-2.7,6.6-5.2,9.3c-1.2,1.3-0.9,3.1-1.7,4.5c-0.7,1.3-1.8,2.2-2.4,3.7
			c-2.1,5.1-3.9,10.4-8.1,14.6c-0.4,1,0.4,2.4-0.6,3.7c-3.1,4.2-3.8,9.7-7.4,13.5c0,4.2-4.6,6.4-4.5,10.6c-1.8,1.8-3.2,3.8-3.2,6.5
			c-2.5,1-1.6,4.2-3.6,5.9c-1.2,1-1.2,3.3-2,4.8c-1.1,2.2-2.5,4.2-3.7,6.3c-1.2,2.1-1.5,4.2-3,6.1c-1.3,1.6-1.4,4.3-2.5,6.2
			c-2.5,4.2-4.5,8.6-6.8,12.8c-2.1,3.8-4.2,7.6-6,11.6c-1.8,3.8-3.8,7.5-5.6,11.2c-4.9,10-9.4,20.1-14.8,29.8
			c-2.3,4.1-3.3,8.9-6.8,12.3c-0.2,4.3-4.5,6.8-4.8,11c-3.5,4.9-4.6,11.1-8.5,15.8c-0.6,3.7-3.2,6.3-4.7,9.5
			c-8.6,18.5-23.8,33.2-42.7,41.1c-0.1,0.1-0.3,0.4-0.4,0.3c-3.8-0.4-6.9,1.8-10.1,3.3C279.4,443.5,278.7,443.5,278.1,443.4z"/>
		<path class="st3" d="M33.2,324.6c0-1-0.1-2,0-3c0.1-1.6-0.4-2.8-2.1-3.3c-1.2-1.3-0.1-2.1,0.5-3.1c3.2-6.6,7.6-12.7,10-19.8
			c0-0.3-0.1-0.8,0-1c2.1-3.1,3.4-6.6,5.3-9.7c1.3-1.9,2.5-3.8,3.4-5.9c0.7-2,3.4-3,2.7-5.6c4.2-4.8,6.4-10.9,9.8-16.3
			c2.3-3.6,4-7.7,6.3-11.5c3-4.8,5.5-9.9,8.3-14.8c1.3-2,2.5-4.1,3.4-6.4c1.6-4.5,4.3-8.3,6.7-12.3s4.3-8,6.8-11.9
			c3.2-5,6-10.3,8.5-15.7c1.3-2.8,2.8-5.4,4.5-8c3.7-5.8,6.1-12.2,10-17.8c2.2-3.2,3.8-6.8,5.8-10.1c1.4-2.2,2.6-4.4,3.8-6.8
			c1.5-3.4,4.2-6.3,5.5-9.7c1.6-4.3,4.7-7.7,6.3-12c1-2.6,2.4-5,4.1-7.1c1.7-2.1,1.6-5.2,4-6.7c1.2-4.6,4.3-8.3,6.5-12.4
			c3.8-6.8,7.4-13.7,11.5-20.3c1.3-2.2,2.6-4.5,3.7-6.8c3.8-7.7,8.3-15,12.6-22.4c1-1.7,2.6-2.7,3.5-4.1h165.2
			c0.8,2.7-0.1,4.9-1.3,7.2c-2.1,4.2-4.5,8.3-7,12.2c-2.6,3.9-3.5,8.8-7,12.2c-0.9,4.2-4.4,7.1-5.3,11.3c-0.2,0.9-1.6,1.4-2,2.3
			c-3,6.6-7.3,12.6-10.5,19.1c-2.1,4-4.4,7.9-6.8,11.8c-2.4,3.9-4.2,8-6.6,11.8c-1,1.6-2,3.3-3,5c-1.3,2.6-2.5,5.2-3.4,8
			c1,3.9-3.3,5.1-4.2,8c-3.5,4.2-4,10.2-8.7,13.5c-5.1,3.8-6.4,10.1-9.4,15.3c-10.2,17.7-19.5,35.9-29.5,53.7
			c-5.7,10.1-11.4,20.2-17.2,30.2c-1.2,2.1-1.8,5.1-4.9,5.5c-1.6-1.7-1-3.5-0.2-5.2c0.9-2,1.2-3.9-0.4-5.7c-0.6-1.7,0.1-3,0.9-4.4
			c15.4-27.7,31.3-55.2,46.6-83c8.9-16.3,17.3-32.8,26.7-48.8c12.8-21.9,24-44.5,37.4-66c0.7-1.1,3.7-2.9-0.1-4.2
			c-3.5-0.2-7.1,0.3-10.6-0.6c-2.6-0.8-5.2-0.5-7.8-0.5c-38.1,0-76.3,0-114.5,0c-2.7,0-5.6,0.6-8.1-1.2c-0.7-2.1,1.1-2.2,2.3-2.6
			c1.8-0.6,3.8-0.3,5.7-0.3c42.3-0.1,84.6,0.1,126.9-0.4c-3.4-0.8-6.7,0.4-10.1,0.4c-38,0-76,0-113.9-0.1c-2.2,0-5.1,0.7-6-2.6
			c1.3-0.8,2.7-0.5,4.1-0.5c35,0,70,0,105.1,0c0.8,0,1.7-0.2,1.9,0c-36.4,0-73.2,0-110,0c-2.6,2.4-7.7,0.8-8.6,5.7
			c-0.3,0.7-0.6,1.4-1,2c-8.9,14.7-16.6,30-25.1,44.9c-12.9,22.4-25.2,45.1-37.7,67.7c-14.1,25.5-28.5,50.8-42.6,76.3
			c-2.2,3.9-4.7,7.7-6.8,11.7c-8.4,15.3-17,30.8-25.7,46.1c-4.6,8.3-9.2,16.7-14.2,24.8C36.2,322.6,35.8,324.9,33.2,324.6z"/>
		<path class="st4" d="M12.4,507c-1.7-0.2-1-1.5-1-2.4c0-9.3,0-18.6,0-27.9c0.3-1.5,1.2-1.4,2-0.6c0.8,0.8,1.4,0.6,2.2,0.6
			c7.5,1.2,15.2,0.7,22.7,0.9c46.4,1.4,92.9,0.3,139.4,0.7c1.6,0,3.2-0.4,3.9,0c-43.3,0-87.5,0-131.6-0.1c-1.7,0-4.2,1.7-5.2-1.5
			h762.6c4.9,0,9.7-1.5,14.7-1.1c5,0.4,9.7,0.1,14.6,0.1c0.9,3.8-2.2,3.4-4.2,3.5c-5.2,0.6-10.4,0.6-15.6,0.1
			c-7.9-1-14.8,3-22.3,3.3c-35.8,0.1-71.5,0.3-107.3-0.1c-10.7-0.1-21.5-1-32.2-0.9c-164.2,2.4-328.5,0.7-492.7,0.8
			c-35.6,0-71.2-0.4-106.7-0.8c-8.7-0.1-17.3,1.7-26,1c-3.3-0.9-7.3,1.2-10-2.3c-4.2,0.9-3.4,4.3-3.4,7.1c-0.1,19.7,0,39.4-0.1,59.1
			c0,2.7,0.4,5.6-1.1,8.1c-0.4,0.5-1.1,0.7-1.6,0.4c-0.8-11.6-0.1-23.1-0.3-34.6c-0.1-5.6,0-11.1,0-16.3
			C12.5,504.7,13.3,506,12.4,507z"/>
		<path class="st5" d="M291.6,148.6c1.2-0.9,0.5-3,2.7-3.4c1.5-0.3,1.6-2.6,2.5-3.9h116.1c2,0,4.1,0.4,5.8-1
			c4.1-3.8,5.4-9.1,7.8-13.8c11.5-22.7,23.4-45.2,33.9-68.5c1.9-0.9,1.5-3.4,3.1-4.6l-1-1.3c0.7-2.6,2.5-4.7,4.1-6.8
			c1-1.4,1-3.6,3.3-3.7c103.6,0.3,207.2,0.4,310.8,0.3l0,0H469.8v-0.2c-0.1-0.9,0.3-1.3,0.8-1.3c1.6-0.1,3.1,0,4.7,0h338.3
			c4.7,2.5,9.7,0.7,14.6,0.8c4.1,0,8.3-0.3,10.4,4.5c-0.5,1.8-2.2,3.1-2.1,5.2c0,1.4-2,1.7-2.1,3.1c-0.7,0.8-1.3,2.1-2.6,0.7
			c-1.4-2.7,1.9-4.8,0.8-7.9c-7.5,0.8-15.1,2.9-22.7,0.1c-2-2.8-4.9-3.1-7.9-2.6c-4.8,0.7-9.6,0.9-14.5,0.7c-101,0.2-202,0-303,0.1
			c22.8,0,45.5,0,68.3,0c2.4,0,4.9-0.4,7.1,1c0.6,0.4,0.7,1.2,0.3,1.8c-2.3,1.7-5,1.2-7.5,1.2c-23.2,0-46.3,0-69.5,0
			c-2.4-0.1-4.8,0-7.2,0.2c-2.7,0.7-3.6,3.1-4.7,5.2c-13.5,27-27.2,54-40.5,81.1c-1.6,3-3.1,6.1-4.6,9.1c-1.2,2.4-2.9,4.2-5.8,4.3
			c-33.3,0.2-66.6,0-99.8,0.1c-4.9,0-9.4-2.3-14.3-2.1c-3.7,0.1-7.3,0.4-10.3,2.8C294.5,150.3,292.7,149.9,291.6,148.6z"/>
		<path class="st6" d="M794.9,480.9h6.7c1.2-0.5-0.1-2.8,1.8-3.1h32.5c1-0.8,0.5-1.5,0.6-2.2h7.8c0.1,0.1,0.3,0.2,0.4,0.4
			c0.1,0.1,0.1,0.3,0.2,0.4c0,50.3,0,100.5,0,150.8c-1.2,1-2.6,0.4-3.9,0.5c-8.3,0.1-16.7,0.1-25,0c-0.8,0-2.2,0.7-2.4-1
			c7.1-1.2,14.3-0.1,19-0.4c-22.9-0.7-48.3-0.7-73.6-0.7c-2,0-5,1.4-5.7-2.3c2.1-1.7,4.6-1.2,7-1.2c18.1,0,36.1,0,54.2,0
			c6.6,0.1,13.3-0.1,19.9,0.2c0.2-0.8-0.4-1.3-0.2-2.1c0.6-3.3,0.9-6.6,0.8-9.9c0-39.4,0-78.7,0-118.1c0-2.6,0.3-5.2-0.8-7.6
			c-2.1-1.5-4.4-1.1-6.7-1.1c-8.8-0.1-17.7,0.1-26.5-0.1C798.7,483.5,795.8,484.3,794.9,480.9z"/>
		<path class="st7" d="M753.2,623.7c0.2,1.7,1.5,1,2.4,1c11.8,0,23.5,0,35.3,0c5.7,0,11.5-0.6,17.1,0.1c10.9,1.4,21.8,0.6,32.6,1.3
			c-4.5,1-9,0.5-13.5,0.6c-4.5,0.1-9,0-13.5,0c-132.9,0-265.8,0-398.8,0.1c-6.4,0-12.9,1.3-19.4,1c-6.5-0.2-13.2,0-19.8,0h-19.2
			c-6.6,0-13.3,0.6-19.8-0.1c-15.8-1.8-31.7-0.6-47.5-0.9c-15.8-0.2-31.9,0-47.9,0h-47.3c-16,0-31.9,0-47.9,0c-1.1,0-2.8,1-3.4-1
			c2.7-2.3,6-1.8,8.9-1.4c4.1,0.6,8.3,0.9,12.4,0.9c-2.8-0.3-5.8,0.3-9-0.6c1.3-2.9,3.7-2.3,5.7-2.5c9,0.2,17.9-0.4,26.9,0.4
			c2.2,0.8,4.4,0.6,6.7,0.7c12.8,0,25.7-0.2,38.6,0c134.1,2.4,268.2,0.5,402.3,0.8c16.4,0,32.9-0.7,49.4-0.8c1.4,0,2.8-0.3,4.1-0.7
			c20.1-0.7,40.2-0.2,60.3-0.3C750.5,622.2,752,622.4,753.2,623.7z"/>
		<path class="st8" d="M593.8,262.1c0,0.8,0.1,1.6-0.7,2.3c-1.5,1.2-2.4,3.1-2.5,5c-1.9,1.2-3.4,3.1-4.2,5.2
			c-3.1,7.8-8,14.5-11.9,21.8c-7,13.3-14.3,26.5-21.9,39.5c-8.9,15.3-16.9,31.1-25.9,46.3c-5.1,5.1-7.4,11.9-11.3,17.7
			c-2,3-4.2,5.9-6.6,8.5c-1.2,1.4-2.5,3.5-5,2.5c-1.5-5.4,2.8-8.7,4.6-12.9c5.2-5.9,8-13.4,11.9-20.1c5.7-9.7,10.4-20,16.7-29.4
			c2.2-3.3,3.6-7.1,5.5-10.6c11.3-21.1,23.6-41.6,35-62.6c7.7-14.1,16-28,23.9-42c5.2-9.4,10.4-18.8,15.7-28.1
			c1.5-2.6,1.8-6.6,6.3-6.7c0.2,6.4-3.4,11.4-6.2,16.7c-2.3,4.4-5.4,8.4-6.3,13.5c-1.3,4.7-3.4,9-6.4,12.9
			C599.8,247.8,596.2,254.7,593.8,262.1z"/>
		<path class="st9" d="M504.2,411.1c2.3-2.1,4.4-4.4,6.5-6.7c4-4.8,6.3-10.7,10.1-15.6c0.3-0.4,0.1-1.3,0.1-2.2
			c1.7-1.4,3-3.5,5.2-4.6c1,1.4,0.7,2.8,0,4.2c-2.3,3.5-4.6,7.1-7,10.6c-0.7,0.9,0,1.9-0.6,2.9c-1.2,1.9-1.3,4.2-2.9,6.1
			c-1.4,1.7-2,4-3.6,5.8s-1.9,5-3.6,7.3c-3.9,5.1-7,10.8-11.8,15.4c-3.5,3.5-7.7,6.3-12.2,8.3c-1,0.4-1.8,1.6-3.1,1.1
			c-6.7,1.5-13.6,2.2-20.6,2.1c-32.1,0-64.2,0-96.3,0c-7.6,0-15.2-1.3-22.7,0h-15.8c0.6-4.9,3.6-7.9,6.4-11.1c-0.1-2.5,0-4.9,3.1-6
			c-0.2-2-0.1-4,2-5.2c2.5-6.5,7-11.9,9.9-18.2c0.5-1.2,0.8-2.6,2.2-3.2c1.3-0.6-0.6-3,1.6-3.2c0.1,1.1,1.2,1.6,1.8,2.4
			c-0.3,1.7-1.3,3.3-2.8,4.2v4.4c-3.7,2.3-3.2,6.2-3.2,9.8c0.2,5.4-4,8.8-6,13.1c-0.8,1.5-1.8,2.9-2.9,4.2c-1.1,1.7-3.1,2.7-4.1,5
			c5.9,0.3,11.7,0.3,17.6,0c35.1-0.2,70.2-0.1,105.2,0c4.5,0,8.6-0.6,12.1-3.6c1.1-0.9,2.3-1.5,3.7-1.8c14-1.5,21.4-11.4,28.2-22.1
			C501.5,412.9,501.8,410.9,504.2,411.1z"/>
		<path class="st10" d="M593.8,262.1c-1.2-0.8-1.6-2.4-0.8-3.6c0.1-0.2,0.3-0.4,0.4-0.5c1.6-1.8,1.9-4.1,3-6
			c1.1-1.8,2.1-3.6,2.8-5.6c0.8-2.2,2.9-4,4.4-6c2.7-3.5,4.6-7.4,5.9-11.6c2.6-6.6,6.6-12.4,9.9-18.6c3.8-7.2,7-14.7,10.5-22.1
			c3.1-6.5,7.6-9.9,15.4-9.9c34,0.3,68-0.1,102,0.3c7.2,0.1,11.8-2.9,14.7-8.4c4-7.5,9.2-14.3,13.7-21.4c7.5-11.7,13-24.5,20.5-36.1
			c8.6-13.2,14.9-27.7,23.4-41.1c1-1.6,1.9-3.4,4.1-3.6c2.6,2.1,0.6,4-0.5,5.8c-4.1,6.7-8,13.6-11.6,20.6c-1.5,0.4-1.4,2-2.1,3
			c-1.8,2.9-2.7,6.3-5,8.9c-1,1.3-1.1,3.3-1.9,4.9c-4.3,8.1-8.2,16.5-13.5,24.1c-0.7,1-0.9,2.4-1.5,3.5c-3.1,5.1-6,10.4-9,15.6
			c-2.3,4-4.7,8.1-6.7,12.3c-2.4,5.1-5.3,10.3-9.8,14.2H642.2c-2.3,2.6-4,5.7-6,8.5c-1.4,2.3-2.7,4.7-3.8,7.2
			c-1.4,2.9-3.2,5.7-5.2,8.2C617,222,607.3,239.4,598,256.9c-0.3,0.1-0.8,0.2-0.8,0.3C597.1,259.4,595.8,261.4,593.8,262.1z"/>
		<path class="st11" d="M526,386.1v-4.2c0.1-0.6-0.1-1.3,0.3-1.9c3.5-5.8,6.9-11.7,10.2-17.6c1.5-2.7,3.3-5.5,4.2-8.7
			c0.4-1.2,1-2.4,1.9-3.4c2.2-2.8,4-5.9,5.4-9.2c0.3-0.6,0.9-1,1-1.7c0.2-2.3,3.4-2.7,3.3-5.5c0-1.9,1.9-3.3,2.9-5
			c1.1-1.8,2-3.7,2.8-5.6c0.9-1.7,1.7-3.4,2.4-5.2c0.5-1.6,1.9-1.7,3.1-2.3v-4.2c2.8-2.3,4.8-5.4,5.8-8.9c0.4-1.7,2-2.6,2.7-4.1
			c1-2.2,2.8-3.8,3.3-6.5c0.4-2.2,3.2-3.7,2.9-6.5c2.2-2.3,3.5-5.4,6.3-7.2v-4.6c1.4-1.3,2.9-2.7,4.4-4.2c0.6-0.6,1.3-0.2,1.9-0.4
			c-0.8,1.3-1.6,2.6-0.8,4.5c-2.1,1.5-3,3.8-4.2,6c-2,4.2-4.8,8.1-6.8,12.3c-1.5,3.1-3.4,5.9-4.8,9c-1.9,4.3-4.8,8.1-6.9,12.3
			c-2.2,4.4-5.5,8.4-6.8,13.3c0,0.2,0.1,0.4,0,0.5c-3.3,2.3-3.9,6.4-6.3,9.4c-1.2,1.2-1.9,2.7-2.1,4.4c0,0.3,0,0.9-0.1,1
			c-2.9,1.6-3.4,4.9-4.9,7.4c-1.3,2.3-3.7,4.3-3.6,7.3c-2.1,1.8-2.5,4.6-4,6.7c-4.2,6.2-6.8,13.3-11.4,19.3
			C527.4,383.7,527.6,385.5,526,386.1z"/>
		<path class="st12" d="M13.4,554.9h1c2.2,2.3,1.6,5.2,1.6,7.9c0.1,16.8,0,33.6-0.1,50.5c0.3,2.6-0.3,5.3,0.6,7.9
			c3.8,2.1,8.1,1.4,12.1,1.3c6.2-0.2,12.4,0,18.5-0.3c11.9,0.3,23.7-0.7,35.6-0.7c2.2,1.2,6.6,0.5,4.7,5.3H11.3c0-7.4,0-14.8,0-22.1
			c0-0.8-0.4-1.8,1-1.8c1.2,5.9,0.1,11.9,0.5,16.9c0-20,0-40.9,0-61.8C12.7,556.9,12.9,555.8,13.4,554.9z"/>
		<path class="st13" d="M341.6,445.5c-0.1-0.4,0.1-0.9,0.5-1c0.1,0,0.2,0,0.3,0c1.6,0,3.1,0,4.7,0c40.9,0,81.7,0,122.6,0.1
			c3.9,0,7.6-1.9,11.5-1.1c-2.3,1-4.7,1.7-7.2,2.1c-5.4-0.2-10.7,1.5-16.2,1.1c-5.5-0.4-11.1-0.1-16.7-0.1h-49.5
			c-8.5,0-17,0.2-25.5,0C358,446.3,349.8,445,341.6,445.5z"/>
		<path class="st14" d="M87.4,626.8v-2.6c-1-1.6-3.5,0.8-4.2-1.6c1.8-1.8,4.2-1.6,6.4-1.6c21.5-0.1,43.1-0.1,64.6,0
			c1.9-0.2,3.8,0.2,5.6,1c0.6,0.3,0.9,1.1,0.6,1.7h-5.1c3.7,1.4,7.5,0.7,11.2,1.5c-3.9,0.9-7.9,0.5-11.9,0.6s-7.9,0-11.9,0H92.2
			C90.5,625.8,88.8,625.6,87.4,626.8z"/>
		<path class="st15" d="M13.4,401.7c2-0.2,0.5-2,1.3-2.9c2.1,1.2,1.2,4.1,2.9,5.5c-0.2,3.2,2,5.2,4.2,7.3v3.4
			c4.2,2.2,6.3,6.5,9.6,9.5c5.6,4.9,11.5,9.4,18.1,12.6c2.2,1,4.5,1.7,6.9,2c1.7,0.2,2.3,1.3,3.3,2.1c1.9,0.5,4.5-1,5.7,1.9
			c-1.3,0.6-2.7,0.1-4.1,0.3c-2.2,0.4-4.2-0.7-6.1-1.5c-1.9-0.8-3.6-1.3-5.4-2.1c-4.2-2-8.3-4.3-12.2-6.8
			c-4.7-2.9-8.3-6.7-12.2-10.4c-2.8-3-5.2-6.3-7.1-10c-1.6-2.9-2.8-6.1-4.6-9C13.3,403,13.5,402.4,13.4,401.7z"/>
		<path class="st16" d="M44.7,476.8c-0.1,0.4,0.1,0.9,0.5,1c0.1,0,0.2,0,0.3,0c1.6,0,3.1,0,4.7,0h135.5c-1.2,1.5-2.3,1-3.3,1
			c-48.6,0-97.2,0-145.7,0c-6.7-1.5-13.5-1-20.4-1c-0.4,0-0.8-0.3-0.9-0.7c0-0.1,0-0.2,0-0.3H44.7z"/>
		<path class="st17" d="M460.4,57.9c0.1,3.8-1.9,6.9-3.4,10c-7.4,15.5-15.1,30.7-22.9,46c-2.6,5-5,10-7.9,14.9
			c-1.9,3.3-3.4,6.9-5.3,10.2c-0.4,0.8-1,1.6-1.8,2.1l-0.4-0.9c1.4-3.4,3.9-6.3,4.4-10.1c4.9-6.9,7.9-14.8,11.7-22.2
			c7.2-14,14.3-28,21.3-42.2C457.5,63,458,60,460.4,57.9z"/>
		<path class="st18" d="M597.9,256.9v-3.6l2.9-2.9c0.1-0.3,0.2-0.6,0.2-1c-0.4-1.7,0.1-3.4,1.4-4.5c3.1-2.2,3.4-6.2,6.1-8.5
			c0.4-0.3,0.7-0.7,0.8-1.2c0-3.1,2.1-4.8,4-6.7c-0.1-4.2,2.5-6.7,5.2-9.4v-3.1l3.2-2.6v-3.6c1.2-1.7,3.5-2.5,3.3-4.8h1.9
			c0,0.9,0.4,2.2-0.1,2.5c-2.4,1.9-2.8,4.8-4.3,7.1c-1.4,2.3-2.3,5.2-4.2,7.1c-2.6,2.7-3.3,6.4-5.4,9.3c-2.1,2.9-3,6.5-5,9.3
			c-2.2,3.1-3,6.9-5.8,9.6c0.3,2.4-2.1,3.6-2.7,5.7C599.6,256.3,598.8,256.9,597.9,256.9z"/>
		<path class="st19" d="M41.5,295.5c1.6,0.4,1,1.1,0.5,2.1c-2.2,3.9-4.5,7.8-6.5,11.8c-1.3,2.6-2.1,5.5-4.4,7.5c-0.3,0.2,0,1,0,1.5
			c-3.8,5.1-6.5,10.9-9.4,16.5c-3,5.9-5.9,11.9-8.8,17.8c-0.9-0.7-0.4-1.4-0.6-2.1c-0.2-1.1,0.5-1.8,1-2.7
			c3.4-6.7,6.4-13.7,10.1-20.2c3.8-6.8,7.1-13.8,11.6-20.2c0.8-1.4,1.5-2.8,2.1-4.3c0.7-1.2,0.9-3.2,2-3.7
			C41.2,298.6,39.5,296,41.5,295.5z"/>
		<path class="st5" d="M811.5,94.4v-3.6c1.8-1.9,4.2-3.6,4.2-6.6c0-1,0.9-1.4,1.4-2.1c2-3.1,4-6.3,6-9.5c0.8-1.2,1.2-2.7,1-4.2
			c0.1-6.2,4.3-9.8,8.3-13.5l2.1-1c0.5,1.5-0.6,3-1.2,3.6c-3.2,3.2-3.5,8.2-6.9,11.3c-0.4,3.8-3.7,6.2-5,9.4c-1.4,3.1-3,6.1-4.8,8.9
			C815.1,89.4,814.5,92.8,811.5,94.4z"/>
		<path class="st5" d="M838.6,45.4c-2.8-2.3-5.8-3.7-9.6-3.1c-3.3,0.5-6.6-0.7-10,0.9c-1.2,0.6-3.1-1.7-4.8-0.8
			c-1-0.8-0.5-1.6-0.7-2.2c4,0,8.1,0.7,11.8-0.2c4.6-1.1,9.1-0.6,13.5-0.8c0.5,0,1-0.2,1.6,0.5C841.2,41.8,840.4,44.1,838.6,45.4z"
			/>
		<path class="st20" d="M271.8,436.1c-0.1,1.6-1.3,0.9-2.1,1c-5.6,3.2-11.7,3.8-18.1,3.8c-55.4,0-110.7,0-166.1,0
			c-3.3,0-6.6,0-9.6-1.7h-5c-0.7,0-1.3-0.1-1.3-1c5.6-1.3,11.2,0.1,15.7-0.5c-3-0.1-7,0.3-11-0.2c-1.6-0.2-4.9,0.9-4.2-3
			c2.7-1.6,5.7-1.1,8.6-1.1c60.5,0,121.1,0,181.6,0c3,0,5.9-0.5,8.8-0.5c0.8,0,1.7,0.3,2.4,0.7C272.3,434.6,271.5,435.4,271.8,436.1
			z"/>
		<path class="st21" d="M75.9,439.3c59.7,0,119.4,0,179,0c2.2,0.2,4.4-0.1,6.4-0.9c1.8-0.8,4.3,0.3,6.3-1.1c0.4-0.3,1.3-0.1,2.1-0.1
			l-4.9,4.4c-0.6,0.5-0.2,1.3-0.3,1.9c-59.7,0-119.5,0-179.2,0C81.5,443.4,78.3,442.5,75.9,439.3z"/>
		<path class="st22" d="M33.2,324.6c1.6-2.1,3-4.4,4.2-6.8c3.9-6.9,7.7-13.8,11.6-20.6c3.7-6.4,7.4-12.9,11.1-19.3
			c2.7-4.7,5.2-9.5,7.7-14.4c1.9-3.8,4.1-7.3,6.6-10.7c0.8-1-0.7-3,1.5-3.3c1-0.2,1.4,0.4,1.8,1.2c-0.6,6.7-5.1,11.6-8.1,17.2
			c-14,25.9-28.9,51.3-42.9,77.2c-11.2,20.6-10,41.2,1,61.5c2.1,3.6,4.3,7.1,6.8,10.4c0.1,1.6-0.5,2.6-2.4,2.4
			c-3.6-4.1-6.7-8.6-9.3-13.3c-1.6-3.1-2.4-6.7-4-9.8c-1.5-3-2.5-6.3-3-9.6c-0.8-4.8-2.4-9.7-1.2-14.6c1-3.9,0.5-8,2-11.6
			c1.4-3.4,2.5-6.9,3.9-10.4c1.3-3.5,2.9-6.5,4.5-9.6s3.6-6.1,5.3-9.3C31.4,329.1,33.2,327.3,33.2,324.6z"/>
		<path class="st23" d="M32.2,419.5c1.1-0.2,1.9-1,2.1-2.1c1-0.4,2.1-0.1,2.8,0.7c8.5,7.6,18.6,12.3,29.5,15.2
			c1.2,0.2,2.3,0.8,3.1,1.8c1.8,1.9,4.2,2.1,6.6,2.1c4.1-0.1,8.1,0.1,12.2,0.5c-6.3,0.6-12.5,0.5-18.8,0.6c-8.3-1.8-16.4-4.6-24-8.3
			c-3.1-1.6-6.3-3.1-8.3-5.9C35.9,422,33,421.9,32.2,419.5z"/>
		<path class="st24" d="M13.4,554.9v71.7c-0.5-1.7-0.1-0.6-0.7-1c-0.1-0.1-0.3-0.3-0.3-0.4c0-7.5,0-14.9,0-22.4v-104
			c0.5,0.7,0.2-0.4,0.7,0.1c0.1,0.1,0.3,0.3,0.3,0.4C13.4,517.8,13.4,536.4,13.4,554.9z"/>
		<path class="st25" d="M359.3,400.7c0-0.3-0.1-0.8,0-1c3.8-6.9,7.5-13.9,11.5-20.8c3.6-6.3,6.9-12.8,10.5-19.1
			c5.3-9.1,10.3-18.3,15.5-27.5c3.4-5.9,6.1-12.2,10.3-17.6c1.2-4.6,4.4-8.2,6.4-12.4c3.1-6.4,7.3-12.2,10.8-18.5
			c3.1-5.5,5.8-11.1,8.8-16.7c2.1-3.8,4.5-7.5,6.7-11.3c0.7-1.2,1.1-2.7,1.9-3.9c4.7-8.1,8.7-16.6,13.4-24.6
			c5.2-8.8,9.8-17.8,14.6-26.8c3.4-6.4,6.7-13,11.1-18.8c1.3-1.6,1.4-4,3.4-5.1c1-0.3,1.4,0.3,1.6,1.2c-1.5,6.9-5.8,12.5-9.1,18.5
			c-15.6,28.2-31.3,56.4-46.9,84.6c-13.9,25-28,49.9-41.8,74.9c-7.6,13.6-15.2,27.3-22.8,40.9c-1.3,2.4-2.3,5.1-5.1,6.3
			C358.9,402.7,358.5,401.9,359.3,400.7z"/>
		<path class="st26" d="M271.8,436.1c-0.7-0.1-1.6,0.4-2-0.6c0.4-0.9,2.2,0.2,2-1.5c3.4-2.9,8-3.1,11.9-4.8
			c17.5-7.5,30.5-19.4,39.1-36.5c10.8-21.7,21.6-43.6,32.6-65.2c13.1-25.7,25.6-51.6,38.7-77.3c0.9-1.8,1.4-4,4.1-4.2
			c1.2,0.5,1.7,1.3,0.8,2.5c-1.6,5.1-4.9,9.4-7.3,14.2c-2.4,4.7-4.6,9.2-6.7,13.9c-1.6,3.8-3.5,7.7-5.4,11.3
			c-2.4,4.5-3.6,9.8-7.1,13.7c-0.1,3.4-3.7,5.4-3.7,8.9c-2.7,2.7-3.1,6.8-5.5,9.7c-0.6,0.8-1.1,1.6-1.5,2.5
			c-1.9,4.8-4.4,9.3-6.7,13.9c-5,10.3-10,20.5-15.1,30.7c-5,10.1-9.9,20.2-15.1,30.2c-2.9,5.8-6.6,11.1-11,15.8
			c-7.4,8.2-16.5,14.5-26.7,18.6c-3.7,1.6-7.6,2.5-11.4,3.9C274.5,436.3,273.1,435.9,271.8,436.1z"/>
		<path class="st27" d="M398.9,248.6c-0.2-0.8,0.5-2-1-2.1c-1.5-2.2-0.1-4,0.8-5.8c11.1-21.6,21.3-43.6,32.9-65
			c2.2-4.1,4.8-5.4,9.6-5c13.5,1,27.1,0.2,40.6,0.4c2.6,0,5.2-0.4,7.8,1.4c0,2.8-1,4.8-4.2,5.2c0.1-0.5-0.2-0.9-0.7-1
			c-0.1,0-0.2,0-0.3,0c-0.2-0.8,0.8-1,1-1.9h-48.9c-1.3,2.8-4.3,4.8-4.3,8.4c-3.3,2.6-2.9,7.1-5.6,10.2c-1.4,1.5-1.6,4.1-2.7,6.1
			c-2.6,4.8-4.9,9.8-7.4,14.6c-1.6,3.1-3.7,6.1-5.1,9.4c-3.4,8.3-7.8,16.2-11.5,24.3C399.8,248.3,399.6,248.7,398.9,248.6z"/>
		<path class="st28" d="M359.3,400.7c0.2,0.8-0.5,2,1,2.1c0.8,1,0.8,2.4,0.1,3.4c-5.1,9.2-10.1,18.4-15.7,27.4
			c-2.1,1.4-3.4,3.8-6.2,4.2c-0.8-0.2-1.4-0.6-1-1.6c0-0.5-0.2-1.3,0-1.5c4.3-4.3,6.3-10.1,9.4-15.2c2.2-0.9,2.4-3.2,3.5-4.8
			c2.8-3.9,4.4-8.6,7.7-12.2C358.6,401.9,358,400.6,359.3,400.7z"/>
		<path class="st29" d="M343.7,433c1.5-0.4,1.5-2,2-3c2.3-4.8,5.2-9.3,7.9-13.9c2.3-3.8,4-8.1,6.7-11.8c0.3-0.3,0-1,0-1.5
			c4.4-7,7.7-14.6,12.5-21.4c1.2-4.6,5.1-7.9,6.3-12.5c4.1-4.6,5.6-10.6,9-15.6c2.4-3.5,4.1-7.7,6.4-11.4c3.4-5.5,6.1-11.4,9.4-17
			c2.2-3.9,4.4-7.9,6.6-11.8c3.9-7.1,7.8-14.1,11.9-21.1c3.1-5.2,6.1-10.6,8.8-16.1c2-4.1,4.3-8,6.8-11.8c0.6-1,1.1-2,1.6-3
			c2.6-5.6,5.6-10.9,9.1-16c0.7-1.3,1.3-2.6,1.9-3.9c4-8.3,9.3-15.8,13.1-24.3c2.8-2.5,3.9-6.1,5.5-9.2c2.6-5,5.4-9.9,8.2-14.8
			c2.9-5.1,5.6-10.2,8.2-15.3c1.4-1.6,2.7-3.2,4.1-4.8c-1.2-0.9-2.6-0.4-3.9-0.4c-12.3-0.1-24.6,0-36.9,0c-3.7,0-7.4,0.4-11-1
			c-0.6-0.1-1.2-0.1-1.8,0c-0.7,0.8-1.3,1.7-1.8,2.7c-3.5,6.7-7.3,13.2-10.7,20c-1,2.2-1.5,4.6-3,6.6c-1.4,1.8-3,3.9-2.7,6.6
			c-4.4,5.5-6.6,12.2-9.8,18.3c-1.6,3.1-3.2,6.3-4.8,9.5c-1.6,3.2-3.1,6.3-4.9,9.4c-0.4,0.7-0.2,1.3-0.3,2c-2,0.9-1.4,3.6-3.1,4.7
			c-2.1,7.2-6.7,13.1-9.6,19.9c-2.9,6.6-6.5,12.9-9.8,19.3c-2.6,5-5.4,9.9-7.6,15.1c-1.6,3.7-3.1,7.4-4.9,11
			c-2.2,4.5-5.2,8.5-7,13.2c-1.8,4.5-4.3,8.6-6.6,12.9c-2.2,4.3-4.2,8.3-6.3,12.5c-2.1,4.2-4.8,8.4-6.5,12.9
			c-1.9,5-4.8,9.4-7.1,14.2c-2.3,4.8-4.4,9.6-7,14.2c-3.1,5.6-6.4,11.2-11.3,15.6c-4.5,4.2-8.7,8.5-13.9,11.7c-4.4,3-9.2,5.3-14.2,7
			c-1.3,0.5-2.5,1.3-3.5,2.3c-2.6-0.9-5,1.3-7.7,1c-14.2,2.1-28.5,0.8-42.7,1c-14.6,0.2-29.2,0.1-43.7,0.1h-43.2
			c-14.4,0-28.8,0.1-43.2-0.1c-4.1,0-8.1,2.2-12,1c-5.8-1.8-11.5-0.5-17.3-0.9c-4.6-0.5-9.2-1.7-13.4-3.7
			c-5.2-2.3-10.2-5.2-15.3-7.9c-1-0.6-1.7-1.7-2.6-2.5c-1.4-1.2-2.3-2.9-4.2-3.6c-4-1.8-5.2-5.9-7.2-9.2c-3.4-5.9-5.9-12.2-7.5-18.8
			c-0.6-2.6-1.3-5.4-1.7-8c-0.7-4.3-0.8-8.7-0.1-12.9c1.6-9.6,4-18.9,9.7-27.2c2.4-3.8,4.6-7.7,6.6-11.8c2.1-4.2,4.3-8.3,6.7-12.3
			s4.5-7.9,6.9-11.8c2.3-3.6,4-7.7,6.4-11.4c3.4-5.5,6.2-11.3,9.4-16.9c2.5-4.3,4.8-8.7,7.2-13.1c2.1-3.8,4.1-7.7,6.3-11.5
			c0.4-0.7,0.2-1.3,0.3-1.9c5.3-11.3,11.9-21.9,17.9-32.7c9.7-17.6,19.5-35.1,29.3-52.6c12.3-21.9,24.2-43.9,36.7-65.6
			c8.5-14.9,16.8-29.9,24.8-45.1c1.3-2.5,2.1-5.7,5.7-6.2c44.2,0.3,88.3,0,132.5,0.1h11.5c1.6,1.8,0.4,3.2-0.6,4.6
			c-10.5,15.2-18.1,31.9-27.3,47.8c-17.5,30.3-34.1,61.2-51.2,91.7c-13.1,23.5-26.3,46.9-39.2,70.5c-2.9,5.3-6.1,10.5-8.9,15.9
			c-5.6,11.5-12.3,22.2-18.5,33.3c10,1.3,20,0.5,30,0.4c0.9-0.1,1.7-0.6,2-1.5c8.4-15.5,16.3-31.4,24.6-47
			c9.5-17.9,17.9-36.4,28.5-53.8c1.4-2.4,1.8-5.3,3.7-7.4c1.7-1.2,3-2.8,3.9-4.7c4.9-11.6,12.5-21.8,18-33c0.8-1.6,1.7-3,2.9-4.3
			c1.7-1.8,3.5-3.8,6.2-2.2c2.7,1.5,1.6,3.8,0.7,5.9c-10.4,19.8-21,39.6-30.7,59.7c-15.4,31.9-32.2,63.1-47.9,94.7
			c-2.5,5.1-5.8,6.9-11.4,7c-11,0.2-21.8-1.4-32.7-1.3c-6.9,0.1-11.3-6-10.1-12.8c0.6-2.9,1.7-5.7,3.3-8.2
			c26.3-46.4,52.2-92.9,78.1-139.5c18.2-32.6,36.5-65.1,54.4-97.8c0.7-1.3,1.9-2.5,1.5-4.2c-1.6-1.4-3.4-0.9-5.1-0.9
			c-35.4,0-70.9,0.1-106.3-0.1c-4.9,0-8.2,1.6-10.6,5.8c-8.3,14.7-16.3,29.4-24.5,44.1c-19.3,34.6-38.6,69.1-57.8,103.7
			c-19.8,35.5-39.6,71-59.4,106.4c-5.3,9.4-11,18.5-15.6,28.2c-9.9,20.7-7.8,40.8,5.9,58.9c8.8,11.6,22.2,15.7,36.6,15.8
			c35.8,0.2,71.5,0.1,107.3,0.1c23.6,0,47.2-0.1,70.9,0c27.5,0.1,47.3-11.9,59.6-36.8c25.9-52.3,52.2-104.4,78.2-156.6
			c10.9-21.8,21.9-43.4,32.5-65.3c0.8-1.6,1.4-3.2,3.2-3.9c1.9-0.8,4-1.2,6.1-1.1c22.4-0.3,44.8,0.6,67.2-0.4
			c0.9-0.1,1.8,0.2,2.5,0.8c1.3,2.3-0.1,4.3-1.2,6.2c-20.4,36.3-40.5,72.8-60.8,109.2c-20.4,36.5-40.7,73.1-61,109.7
			c-5.9,10.6-11.9,21.2-17.7,31.9c-0.9,1.6-2.2,3.1-2.1,5.2c2,1.8,4.4,1,6.5,1c31.4,0.1,62.9-0.3,94.3,0.2
			c12.4,0.2,20.3-4.8,25.8-15.4c9.6-18.5,20.3-36.4,30.4-54.6c26-46.9,52.2-93.7,78.4-140.5c8.8-15.8,17.8-31.4,26.5-47.2
			c2.9-5.2,6.5-7.5,12.5-7.1c28.6,1.8,57.2,0.9,85.9,1.2c8.2,0.1,16.2-1.6,24.4-1.2c3.2,0.2,5-1.9,6.4-4.5
			c11.2-20.4,22.8-40.6,34.1-60.9c4.6-8.3,9.4-16.6,14-25c1.1-2.1,2.8-4,2.7-6.6c-1.6-1.6-3.6-1-5.4-1c-103.3,0-206.6,0-309.9-0.1
			c-6,0-8.7,2.8-11,7.5c-14.3,28.7-28.7,57.5-43.1,86.2c-1.4,2.8-2.4,5.9-6,6.8c-14.6,2.9-28.9,1-33.1-4.6c1.9-2.4,4.6-2.7,7.4-2.8
			c3.6-0.2,7.3,0,10.9-0.2c3.3-0.3,6.4-1.7,8.8-4c3.4-4.4,5.3-9.5,7.7-14.4c13.6-27,27.3-54,40.5-81.1c1-2,1.5-4.3,4.1-5.1
			c2.4-0.4,4.9-0.5,7.3-0.4c110.9,0,221.7,0,332.6,0c3,0,6.3-0.8,9,1.5c0.5,2.9-1.3,5-2.5,7.2c-19.7,34.3-38.7,68.9-57.9,103.5
			c-1.9,3.4-3.5,7.2-6.9,9.7c-0.6,0.3-1.2,0.5-1.8,0.7c-15.4,0.5-30.8,0.1-46.2,0.2c-2.4,0-4.9-0.2-7.2,0.4c-6,1-12.1,0.5-18.2,0.5
			c-16.3,0.1-32.6,0-48.9,0.1c-6.5,9.8-11.6,20-17.3,30c-27.4,48.4-54.3,97.1-81.6,145.6c-7.8,13.9-15.4,27.9-23.1,41.9
			c-5,8.5-9.3,17.3-14.2,25.8c-5.5,9.5-12.1,17.7-24.1,19.3c-5.6,1.5-11.4,1.1-17.1,1.2c-35.2,0.1-70.5,0.1-105.7,0.1
			c-1.7,0.1-3.5,0-5.2-0.4C344.7,435.9,342.7,435.5,343.7,433z"/>
		<path class="st30" d="M222.8,256.9c0.8,0.2,1-0.8,1.9-1v6l-1.4,1.1c-0.8,1.6-0.2,3-0.4,4.3c-0.1,3-2,5.1-3.5,7.4
			c-5.9,8.6-8.3,19-14.8,27.1c4.5,4.3,11.1,3.7,13.9-1.2c4.6-7.8,8.9-15.7,11.7-24.4c9-16.9,17.7-34.1,26.8-50.9
			c9.5-17.5,18-35.4,27.4-53c0.8-1.5,1.2-3.3,3.2-3.8c2.5-0.1,4.3,0.8,5,3.4c-0.1,5.6-4.7,9.4-6.4,14.3
			c-18.1,33.8-35.1,68.1-52.7,102.1c-4,7.7-7.7,15.5-12,23c-1.4,1.6-3.3,1.7-5.2,1.7c-8.2-0.1-16.4,0.2-24.6-0.1
			c-2.9-1.1-1.7-2.9-0.6-4.5c6.3-9.1,11.5-18.9,16.4-28.8c3.8-6.3,7.6-12.7,11-19.2C219.5,258.9,220.1,256.5,222.8,256.9z"/>
		<path class="st31" d="M291.6,148.6c1,0.4,2.6-1,3.1,1c1.5,2.3-0.3,3.9-1.1,5.6c-2.1,4.2-4.2,8.3-6.2,12.4
			c-6.9,12.5-13.2,25.4-19.9,38c-12.4,23.4-24.4,46.9-37,70.2c-5,9.5-9.5,19.2-15,28.5c-3.8,0.5-7.3,1.2-10.6-0.4
			c-1-2.7,0.9-4.2,1.9-5.9c15.4-27.2,31.4-54.2,46.3-81.7c9.4-17.3,19.3-34.4,28.1-52c0.4-1,1.1-1.8,2-2.3c2.1-0.5,2.3-2.6,3.1-4
			C288,154.9,289.4,151.5,291.6,148.6z"/>
		<path class="st32" d="M222.8,256.9c-0.7,0-1.4,0.4-1.6,1.1c-2,4.2-4.3,8.3-6.8,12.3c-1.7,2.9-3.3,5.9-5,8.8
			c-0.2,0.4-0.6,0.9-1.2,0.7c-0.5-0.1-1-0.5-1-1c0-0.8,0.2-1.6,0.7-2.3c4.3-6.5,7.8-13.5,11.6-20.2c2.6-4.6,5.2-9.2,7.6-14
			c1.9-3.9,4.4-7.6,6.6-11.3c0.4-0.7,0.7-1.4,1.1-2.1c3.1-5.9,6.5-11.6,9.7-17.4c2.9-5.2,5.9-10.3,8.5-15.7c2-4.1,4.3-8,6.8-11.8
			c1.8-2.8,3.2-6,4.8-8.9c3.1-5.5,6.1-11,9.2-16.5c3.8-6.6,7.3-13.3,11.3-19.8c2.1-3.6,3.9-7.4,6-11c4.8-8.1,9.1-16.4,13.8-24.5
			c2.7-4.5,5.1-9.4,7.6-14c3.3-5.9,6.3-12,9.9-17.8c4-6.7,7.3-13.9,12.5-19.8c0.8-0.9,0.2-2,0.4-3h1.6c1.7,2-0.1,3.7-0.9,4.9
			c-4.9,7-9.3,14.4-13.1,22.2c-1,2.2-2.8,3.8-3.3,6.5c-0.4,2.2-3.2,3.7-2.9,6.5c-3,2.3-4,5.9-5.9,9c-2.1,3.6-4.7,7-6.5,10.8
			c-1.6,3.4-3.4,6.6-5.6,9.7c-1.1,1.6-1,3.9-2.9,5.1c-2,5.8-5.5,10.9-8.5,16.2c-3.3,5.9-5.8,12.3-9.9,17.8c-1.2,1.6-1.6,3.9-2.7,5.6
			c-4.9,8.2-8.8,16.9-14.2,24.9c-0.6,1.1-1.2,2.3-1.6,3.4c-2.5,5.1-5.8,9.8-8.2,14.8c-1.8,3.7-4.3,6.8-6,10.5
			c-1.6,3.5-3.9,6.7-5.6,10.2c-1.4,2.7-3.4,5.2-4.7,7.9c-1.3,2.7-2.9,5.1-4.2,7.6c-2,3.9-3.8,7.9-6.6,11.3
			C222.6,254.7,223,255.8,222.8,256.9z"/>
		<path class="st33" d="M189.5,49.6c-3.7,7-7.1,14.1-11.1,20.8c-4.3,7.4-7.9,15.2-12.7,22.4c-2.3,3.7-4.4,7.5-6.3,11.5
			c-4.2,8-8.6,15.8-12.9,23.7c-4.6,8.5-9.5,16.9-14.3,25.3c-3.6,6.4-7.2,13-10.7,19.5c-2.6,4.6-5.1,9.4-8,13.9
			c-2.8,4.3-5,9-7.5,13.5c-3.7,6.6-7.3,13.3-11.2,19.8c-2.2,3.7-4.4,7.5-6.4,11.4c-2,4.2-4.4,8.3-6.9,12.2c-1,1.7-1.8,3.4-2.5,5.2
			c-0.3,1-1.1,1.7-2.1,1.9c0.1-0.5-0.2-0.9-0.7-1c-0.1,0-0.2,0-0.3,0c0.2-2.9,2.6-4.8,3.8-7.3c0.9-1.7,1.9-3.4,2.8-5.1
			c4.2-7.6,8.6-15.2,13-22.7c3-4.9,5.8-10,8.3-15.3c1.7-3.5,3.7-6.9,5.8-10.1c1.9-3,3.5-6.2,5.2-9.3c3-5.5,5.8-11.1,9.1-16.5
			c4.3-7.2,8.1-14.7,12.3-22c2.4-4.2,4.5-8.6,7-12.7c4.5-7.3,7.3-15.6,12.8-22.3c0.9-4,3.8-7.1,5.6-10.7c2.7-5.3,5.8-10.5,9-15.6
			c3.7-5.8,6.2-12.4,9.6-18.3c2.6-4.5,4.6-9.5,8.3-13.4C189,48.6,189.4,49,189.5,49.6z"/>
		<path class="st34" d="M189.5,47.5c0.2-1-0.2-2-1-2.6c2.2-2.6,5.2-2.8,8.3-2.6c0.2-0.3,0.5-0.4,0.8-0.2c0.1,0.1,0.2,0.1,0.2,0.2
			c-0.1,0.4,0.1,0.9,0.5,1c0.1,0,0.2,0,0.3,0c1.4,0.1,2.8,0,4.2,0c38,0,76,0,113.9,0c4.2,0,8.3-1.8,12.6-1.1c0.8,0.1,1.6,0.1,2.4,0
			c1,1.2-0.3,3,1.5,3.7c-0.4,0.6-0.9,0.5-1.4,0.5H198.1c-1.6,0-3.1,0-4.7,0c-0.4,0-0.8,0.3-0.9,0.7c0,0.1,0,0.2,0,0.3
			C191.8,48.3,190.5,48.4,189.5,47.5C189.6,47.5,189.5,47.5,189.5,47.5z"/>
		<path class="st35" d="M283.3,162.1c-3.4,8.6-8.6,16.2-12.7,24.4c-3.5,7-7.6,13.8-11.5,20.7c-2.5,4.5-4.9,9.1-7.6,13.5
			c-1.8,2.9-4.3,5.8-4.7,9.5c-3.3,3.1-3.9,7.8-6.8,11.3c-2,2.4-3.1,5.6-4.7,8.4c-2.7,4.9-5.4,9.9-8.3,14.8
			c-3.9,6.5-7.5,13.2-11.2,19.8c-2.8,5.1-6.2,9.9-8.6,15.1c-0.6,1.3-2.7,1.8-2.1,4h10c0.1-2.6,2.2-4.6,3.3-7c2.2-5,5.1-9.7,7.5-14.6
			c1-2.2,1.3-5.1,4.1-6.3c0.6,0.1,0.7,0.7,1,1c-1.3,4.2-2.9,8.2-4.9,12c-1.8,3.5-4,7-5.4,10.7c-0.6,1.7-3.5,2.3-2,4.7
			c-4.2,2.3-8.7,1.6-13.3,1.7l-2.1-2.7c-1.5-2.5,1.2-3.8,2.1-5.4c3-5.2,6.2-10.2,7.9-16c0.5-1.9,1.4-3.6,2.6-5.1
			c2.7-2.8,3.9-6.4,6.2-9.4c0.1-0.1,0.3,0,0.5,0c3.8-5.5,7.3-11.3,10.3-17.3c0.9-1.7,2-3.4,2.9-5c1.6-2.8,3.2-5.6,4.7-8.4
			c3.5-6.9,8.1-13.3,11.5-20.2c2.9-5.9,6.3-11.6,9.2-17.5c1.6-3.2,3.7-6.1,5.3-9.3c2-3.9,4.5-7.4,6.3-11.5
			c2.4-5.3,5.4-10.3,8.1-15.4c0.4-0.7,0.9-1.4,1.5-2.4C283,161.5,283.2,161.8,283.3,162.1z"/>
		<path class="st36" d="M189.5,47.5h3.1c42.3,0,84.5,0,126.8,0.1c1.4,0,3.4-1.3,4.5,1c0.1,0.4-0.1,0.9-0.5,1c-0.1,0-0.2,0-0.3,0
			c-1.6,0.1-3.1,0-4.7,0H189.5c-0.6,0-1-0.5-1-1C188.5,47.9,188.9,47.5,189.5,47.5z"/>
		<path class="st37" d="M197.8,42.3h-1c-0.1-0.4,0.1-0.9,0.5-1c0.1,0,0.2,0,0.3,0c1-0.1,2.1,0,3.1,0c36.4,0,72.8,0,109.2,0
			c1.1,0,2.4-0.5,3.5,0.4c-0.1,0.1-0.2,0.4-0.2,0.4C274.7,42.1,236.3,42.2,197.8,42.3z"/>
		<path class="st38" d="M160.3,622.6H83.2c-6.2-0.7-12.1,1.4-18.3,1.1s-12.1-0.1-18.2-0.1c-1.6-1.4-3.6-1-5.4-1
			c-9,0-17.9,0.1-26.9,0v-8.3c1.1-2.7,1.6-5.6,1.5-8.6c0.1-10.6,3-20.8,5-31.2c0.4-2,1-4.1,3.3-5.1c2.4,1.6,1.9,4.2,1.9,6.5
			c0.1,9.5,0,19,0.1,28.5c0,1.9-0.5,3.8,1.7,6c4,0.7,8.6,0.3,13.2,0.1c6.8-0.1,13.5,0,20.3,0c251.6,0,503.2,0,754.7,0
			c3.3,0,6.6,0.5,9.8-0.8c2-1.5,1.7-3.7,1.7-5.7c0-35.2,0-70.4,0-105.7c0-2.1,0.3-4.2-1.8-5.6c-3.1-1.1-6.3-0.7-9.3-0.7H169
			c-3.8,0-7.6,0.2-11.5-0.4c-2.2-0.6-4.4-0.9-6.6-0.9H33c-1.5-0.2-3.1,0-4.6,0.5c-0.5,0.3-0.9,0.7-1.4,1.1c-1.8,8-0.3,16.1-0.8,24.2
			c-0.2,2.5,0.6,5.2-1.9,7.1c-2.3-1-2.6-3.2-3-5.2c-2.3-10.2-0.6-20.7-1.8-30.9c-0.4-3,1.8-5,4.9-5.8c1.5-0.4,3.1,0.2,4.5-0.8
			c3.5,0,7,0.4,10.4-0.1c11.5-1.7,23-0.8,34.5-0.9s23.3,0,34.9,0s23.3-0.8,34.9,0.2c16.5,1.4,33.1,0.6,49.6,0.8
			c16.5,0.3,33,0.1,49.5,0.1h348.4c16.5,0,33-0.1,49.5,0.1c4.1,0,7.9-1.6,12.1-1.2c4,0.3,8,0.1,12,0.1c4.2,0,8.4-0.6,12.5,0.1
			c9.8,1.6,19.5,0.7,29.3,0.9c9.8,0.2,19.8,0,29.7,0h58.8c0.2,1.7,1.6,1,2.4,1c12,0,24,0,35.9,0h3.2v138.8c-0.1,0.3-2.1-0.9-1.9,0.8
			c-1.8,1.6-3.9,0.9-5.9,1c-7.9,0.3-15.9-0.5-23.8,0.5c-25.5,0.1-51.1,0.2-76.6,0c-27.2-0.2-54.5,0.4-81.7,0.7
			c-26,0.3-52.1,0-78.1,0.3c-1.6,0.1-3.1,0-4.7-0.3c-2.3-0.7-4.8-0.9-7.2-0.7H243.1c-2.3-0.1-4.5,0-6.7,0.5
			c-24.9,0.6-49.7-0.4-74.6-0.4C161.3,623.1,160.8,622.9,160.3,622.6z"/>
		<path class="st39" d="M29,480.9c0.1,0.7-0.3,1-0.8,1c-4.1,0.6-4.4,0.7-7.3,3.4c-1.3,2.8,1,5.2,0.9,7.9c-0.2,3.8,0.2,7.6-0.1,11.4
			c-0.4,4.9,0.8,9.7,1.2,14.6c0.1,1.5,1.3,2.8,1.2,4.8c1.3-1.6,0.8-2.8,0.8-3.9c0-9.1,0-18.3,0.1-27.4c0-0.8-0.7-2.2,1-2.4
			c2.3,2.5,1.6,5.6,1.6,8.4c0.1,33.8,0.1,67.6,0,101.4c0,2.7-0.3,5.5,0.8,8.1c2.3,1.7,4.8,1,7.2,1.4c1.9,0.3,4.4-0.3,4.9,2.6H25
			c-0.2-2.8-0.1-5.7-0.1-8.6c0-2.9,0-5.5,0-8.3v-26.2c-2.6,2.3-1.4,5.4-3.1,7.4c0.2,4.5-1.8,8.7-2.2,13.1c-0.2,1.9-1,3.8-0.9,5.8
			c0.1,2-1.4,3.3-1.1,5.3c0.3,2.1,0.3,4.2,0,6.3c-0.4,2.6-0.9,5.3-3.1,7.3V479.1h6.2l-1,1.9H29z"/>
		<path class="st40" d="M618.9,478h162.6c-1.1,0.4,0-0.1-0.4,0.5c-0.1,0.1-0.2,0.3-0.4,0.3C772.2,479.2,623.2,478.8,618.9,478z"/>
		<path class="st41" d="M832.4,54.8c-2.7,4-4.9,8.5-8.3,12c-0.2,0.3,0,1,0,1.5c-1.7,0.9-3.1,1.9-3.2,4.2c-0.1,1.7-1.8,2.7-2.6,4.1
			c-1.8,3.1-3.8,5.9-5.1,9.4s-3.8,6.8-5.8,10.1c-2,3.1-3.5,6.4-4.7,9.9c-2.3,2-4.1,4.5-5.3,7.3c-1,2.1-2.1,4-3.4,5.9
			c-2.5,3.7-4,8.1-6.4,11.8c-2.8,4.2-3.9,9.3-7.1,13.2c-0.6,0.7-1.2,1.6-1.7,2.4c-1.4,2.2-3.7,3.9-3.8,6.8c-0.1,0.6-0.5,1.2-1,1.6
			c-3.7,3.3-5,8.3-8.9,11.5c-1.3,6.1-6,9.6-10.3,13.4H638.2c-3.4,3.3-7.2,6.4-7.9,11.6c-3.9,4.3-4,10.6-8.1,14.9
			c-1.2,1.2-1.5,3.1-2.3,4.7c-0.5,1.2-1.1,2.3-1.8,3.4c-1.3,1.4-1.8,3.1-2.7,4.6c-1.9,3.3-3.3,6.9-5.9,9.8v-3.4
			c1.3-1.8,2.8-3.8,4.1-5.9c0.4-0.6,0.1-1.7,0.1-2.7l4.2-3.8c0.5-1.2,0.1-2.3,0.7-3.5c1.9-3.5,3.4-7.3,4.5-11.2
			c-0.9-0.9-1.1-2.2-0.6-3.3c3.3-6,5.9-12.3,10.3-17.6c1-1.2,2.4-2,3.9-2.2c21,2.7,42.1,1.5,63.1,1.8c14.7,0.2,29.4,0.1,44.1,0
			c4.1,0,8.4,0.3,11.6-3.3c0.9-1,2.1-1.9,3-3c6.3-7.5,9.3-17,14.3-25.2c11.4-18.8,20.8-38.7,32.2-57.4c6.8-11.2,11.8-23.5,19.2-34.4
			c0.8-1.1,1.2-2.6,0.9-4c-0.7-1-1.8-0.9-2.8-0.9c-8.9,0-17.8,0-26.7,0c-75.5,0-151.1,0-226.6,0c-2.9,0-6,0.8-8.5-1.4v-1
			c1.8-1.9,4.2-1.5,6.4-1.5c73.2,0,146.3,0,219.5,0c5.8,0,11.6-0.1,17.4-0.1c2.4,0,4.8-0.1,6.8,1.6h17.3l1.5-1.9h4.8
			c0.9,0.7,2,1.7,1.3,3.3c-0.4,1.2-1.1,2.3-2.1,3.2C832.1,52.2,832.4,53.5,832.4,54.8z"/>
		<path class="st42" d="M786.5,46.4H479.7l-2.4-2.6c0.2-0.1,0.4-0.5,0.6-0.5c1.6-0.1,3.1,0,4.7,0h306.1
			C789.4,45.4,787.4,45.5,786.5,46.4z"/>
		<path class="st43" d="M560.4,47.5h235.5c0.6,1,0.7,1.9-0.6,2.5c-43,0.2-86,0.1-129.1,0.1c-63.8,0-127.7,0-191.5,0l-0.9-0.5
			c0-0.3,0.1-0.7,0.1-1c-0.1-0.4,0.1-0.9,0.5-1c0.1,0,0.2,0,0.3,0c1.4-0.1,2.8,0,4.2,0L560.4,47.5z"/>
		<path class="st44" d="M286.4,167.3c0-0.5-0.2-1.3,0-1.5c2.8-2.8,2.9-7.2,5.8-10c-0.2-2.5,2.7-3.7,2.5-6.2l3.5-4.2
			c2.2,0.1,4.4,0.1,6.6-0.1c3.4-0.3,6.7,0.2,9.9,1.3c1.9,0.6,3.9,0.9,5.9,0.8c33.8,0,67.5,0,101.2,0c-0.9,3.4-3.8,2.4-6,2.4
			c-10.2,0.2-20.4,0-30.6,0.1c-25.9,0.1-51.9-0.3-77.8,0.2c-2.7,0.9-3.9,3.3-5,5.6c-2.3,4.6-5,9-7.4,13.5c-0.8,1.4-1.1,3.4-3.5,3.1
			c-0.2-1.8-1.4-2.7-4.2-3.1C286.6,168.9,287,167.9,286.4,167.3z"/>
		<path class="st45" d="M469.8,41.2h313.6v0.9c-104.4,0-208.8,0-313.2,0C470,42.1,469.9,41.5,469.8,41.2z"/>
		<path class="st46" d="M305.2,149.6c-0.1-0.4,0.1-0.9,0.5-1c0.1,0,0.2,0,0.3,0c1.6-0.1,3.1,0,4.7,0c35.7,0,71.5,0,107.2-0.1
			c1.3,0,3.1,1.3,3.9-1h1.5c2.5-4.1,3.7-8.8,6.8-12.5c0.6,0.1,0.7,0.7,1,1c-0.4,3.1-2.7,5.5-3.6,8.3c-0.7,2.1-2.7,3.7-2.6,6.3
			c-4.3,1.6-8.7,1.7-13.2,1.7c-17.5-0.1-34.9,0.1-52.4-0.1c-15.9-0.4-31.8,0-47.8-0.2C309.3,152,306.3,153,305.2,149.6z"/>
		<path class="st47" d="M431.2,136c-0.5,0.1-0.9-0.2-1-0.7c0-0.1,0-0.2,0-0.3c-0.2-1.1,0.5-1.8,1-2.7c13.3-27.2,26.9-54.4,40.6-81.3
			c0.6-1.1,0.9-2.1,2.2-2.4v1c0.4,0.2,0.5,0.5,0.4,0.7c-0.1,0.2-0.3,0.3-0.4,0.3c-4.9,10.8-10.1,21.5-15.6,32.1
			c-3,5.9-5.5,12-8.8,17.7c-2.8,4.9-4.8,10.2-7.6,15.1c-2.8,4.9-5.3,9.9-7.5,15.1C433.6,132.7,432.1,134.1,431.2,136z"/>
		<path class="st5" d="M786.5,46.4l2.1-3.1c2.9,0,5.8,0,8.7,0c2.5,0,4.6-1.4,7.3-1.2c2.1,0.1,4.1,0.7,5.9,1.7v2.6H786.5z"/>
		<path class="st48" d="M563.6,622.6h241.7c3.5-0.2,7.2-2.2,10.4,1H688.6c-1,0.7-2.3,0.5-3.5,0.5c-82.2,0.8-164.4,0.5-246.6,0.5
			c-1.7,0-3.5,0.3-5-0.8c-0.4-1.1,0.1-1.6,1.2-1.7c1.4-0.1,2.8-0.1,4.2-0.1c39.9,0,79.8,0,119.7,0
			C560.2,622.2,561.9,621.7,563.6,622.6z"/>
		<path class="st49" d="M815.7,623.7c0.1-1-0.6-1-1.3-1h-9.1c0.2-1.7,1.5-1,2.4-1c8.9,0,17.9,0,26.8,0h4.1c-0.7,2.2-2.2,2.1-3.7,2.1
			C828.5,623.7,822.1,623.7,815.7,623.7z"/>
		<path class="st50" d="M433.3,623.7h255.3c-0.2,1.7-1.6,1-2.4,1c-12.8,0-25.8-0.8-38.6,0.2c-16.5,1.3-33.1,0.5-49.6,0.8
			c-16.8,0.3-33.7,0-50.5,0H296.6c-16.7,0-33.3,0.7-50-0.2c-19.1-1-38.3-0.5-57.4-0.9c-0.8,0-1.9,0.4-1.9-1c1.3-0.8,2.7-0.5,4.1-0.5
			c46.6-0.1,93.1-0.9,139.6-0.6c31.9,0,63.8,0,95.7,0C429,622.6,431.3,622.1,433.3,623.7z"/>
		<path class="st51" d="M331.2,623.7H160.3v-1h76.1c1.4-0.9,3-0.5,4.6-0.5c28.5,0,57.1,0,85.6,0.1
			C328.1,622.2,330.4,620.8,331.2,623.7z"/>
		<path class="st52" d="M759.4,171.5c-0.2,1.1-1,1.9-2.1,2.1c-4.5,3.7-10.2,3.4-15.4,3.5c-33.5,0.5-67-0.9-100.6-1.4
			c-2,0-4.2-0.6-6,1c-2.7,1-2.4,4.8-5.2,5.4c0,0.9,0.2,1.7,0,1.9c-2.4,2.7-3.2,6.3-5.4,9.1c-1.4,1.5-2.1,3.4-1.9,5.4
			c-1,0.2-1.8,1-2.1,2c-1,2.8-3.3,4.8-3.9,7.7c-0.2,1.2-0.9,2.2-1.9,2.8c-1.1,0.7-1.9,2-2,3.3c-0.1,2.3-1.5,3.8-2.7,5.2
			c-2.4,3.1-4.2,6.6-5.2,10.4c-0.3,1-1.3,1.9-2,2.8c-1.7,2.4-2.6,5.2-4,7.7c-1.4,2.5-3.9,4.6-4.9,7.3c-1.2,3.1-3.1,5.7-4.6,8.5
			c-1.5,2.9-2.7,5.9-5.1,8.3c-0.5,0.6-0.2,2-0.3,3.3c-2.5,1.7-3.4,5.1-6.1,7.1c-0.1,2.4-1.4,4.2-2.9,6.1c-1.1,1.5-1.2,3.8-2.4,5.2
			c-1,1.5-1.9,3-2.6,4.7c-1.2,2.6-2.3,5.5-3.9,7.7c-1.5,2.1-2.8,4.3-4.1,6.6c-1.4,2.4-2.9,4.7-4.6,7c-1.1,1.8-1.9,3.7-2.4,5.7
			c-0.8,2.5-3,3.9-3.5,6.4c-3.7,2.7-3.9,7.5-6.6,10.8c-0.7,0.8-0.2,1.6-0.5,2.6c-1.8,1.4-3.1,3.4-3.6,5.6c-1.2,4.2-4,7.5-6.6,10.8
			c-1.1,1.4-1,2.8-1.1,4.4c-1.9,1.8-3.4,3.9-4.4,6.3c-1.1,2.5-3,4.7-3.8,7.3c-0.6,1.9-2.2,2.5-3.1,4.2v2.7c-0.2,0.3-0.4,0.6-0.7,0.9
			c-1.6,1.5-2.8,3.2-3.7,5.2c-1.9,4.1-4.3,7.9-6.3,12c-0.3,0.9-1,1.5-1.9,1.6c-2.1-3.5,2.5-5.3,2.1-8.3c0-0.3-0.1-0.8,0-1
			c4.4-7.5,8.3-15.3,12.5-22.9c3.5-6.4,7-12.7,10.5-19.1c2.9-5.4,6.1-10.7,9.2-16c5.3-8.9,9.5-18.4,15.5-26.9
			c1.2-1.7,1.7-3.8,2.6-5.7c4.3-8.1,8.7-16.2,13.3-24.2c4.7-8.1,9-16.5,14.2-24.4c2.2-3.5,3.8-7.4,6-11c3.5-5.6,6.3-11.7,9.7-17.3
			c2.2-3.5,4-7.4,6.1-11c2.4-4.2,4.9-8.4,7.3-12.6c2.2-3.9,4.5-7.8,6.5-11.9c2-4.1,4.3-8,6.9-11.7c0.7-1,0.1-2,0.9-3.2h67.4
			c3.9-1,7.9-0.4,11.8-0.5c12.8-0.1,25.6,0,38.3-0.1c1.7,0,3.5,0.5,5.1-0.5h1C757.5,170.4,758.7,170.4,759.4,171.5z"/>
		<path class="st53" d="M511.5,390.3c0.5-0.1,1,0.2,1.1,0.7c0.1,0.2,0,0.5-0.1,0.7c-0.4,1.2-1.1,2.3-2,3.3c-1.3,1.1-1,2.4-1,3.8
			c-2.2,0.7-0.4,2.7-1.4,3.8c-2.8,2.2-3.6,5.3-3.8,8.7c-0.3,0.1-0.8,0.2-0.9,0.4c-3,6.6-7.3,12.6-12.5,17.6
			c-4.6,4.8-10.8,7.6-17.4,8c-1.2,0.1-1.6,1.2-2.7,1.1c-6.8,2.2-7.8,2.1-9.8-2.1c5-1.2,10.4,0.6,15-2.1c7.2-1.4,12.5-5.8,16.7-11.5
			c4.7-6.5,8.2-13.8,12.2-20.8C507,397.9,508.6,393.7,511.5,390.3z"/>
		<path class="st54" d="M476,434c-1.1,2-3,2.1-5,2.1c-3.1,0-6.1,0-9,0c-0.7,0.4-0.6,0.9-0.6,1.4c0.2,0.2,0.4,0.6,0.7,0.6
			c2.9,0,5.8,0,8.7,0l-5.9,5.2H350c-2.9-1.3-6.4-1.4-9.1-3.4c-1-0.7-2.7-1-2.4-2.9c2.2-0.8,3-3.4,5.2-4.2v1.5
			c0.5,0.7,1.2,0.5,1.9,0.5c40.9,0,81.7,0,122.6,0.1C470.9,435.2,473.3,433.4,476,434z"/>
		<path class="st2" d="M338.5,437.2c1.3,1.7,3.4,2.3,5.1,2.9c1.9,0.7,3.6,1.9,5.6,2.3c0.5,0.1,0.9,0.4,0.8,1h-19.7
			c-0.3-2.9,2.6-2.4,3.5-3.9c0.8-1.5,2.2-2.7,3.7-3.4c-0.1,0.5,0.2,0.9,0.7,1C338.3,437.2,338.4,437.2,338.5,437.2z"/>
		<path class="st55" d="M14.5,622.6c1.1-0.2,1.8-1.1,3.2-1.1c9.6,0.1,19.2,0.1,28.6,0.1c0.9,0.7,0.4,1.4,0.6,2.1
			c-4.4,0-8.9-0.1-13.4,0c-1.6,0-3.4-0.7-4.8,0.9c-0.1,0.1-0.3,0.2-0.4,0.1c-4.3-2.2-9-0.4-13.4-1.2
			C14.7,623.4,14.6,622.9,14.5,622.6z"/>
		<path class="st56" d="M429.1,162.1c-5,12.2-11.5,23.7-17.3,35.5s-11.8,23.6-17.7,35.4c-20.9,42-41.9,84-62.9,126
			c-2.5,5-5.2,10-7.8,15c-2.6,5-5,10.4-7.6,15.6c-2.7,5.2-5.9,10.2-9.5,14.9c-7.7,10-18.5,14.6-29.6,19c-5,0.3-9.6,2.3-14.7,2.2
			c-61.8-0.1-123.6-0.1-185.5,0c-3.9,0-7.7-1-11.5-1.4c-3.4-0.3-6.6-2.4-9.8-3.8c-4.7-1.9-9-4.8-12.7-8.3c-5.5-5.3-9-12-11.2-19.3
			c-1-3.5-1.8-7-2.4-10.6c-0.6-3.3-0.9-6.7-0.8-10c0.2-8,2.2-15.9,5.8-23.1c2.3-4.5,4.5-8.9,7.2-13.1c2.7-4.2,4.8-8.8,7.4-13.1
			c2.1-3.4,3.9-7.1,5.9-10.5c3-5.2,5.1-10.9,9.1-15.5c1.2-4.6,4.3-8.3,6.5-12.4c2.7-5.3,5.8-10.5,8.8-15.6c2-3.5,3.8-7.1,5.9-10.5
			c3.4-5.9,6.5-12,9.9-17.8c2.3-4,5.3-7.8,6.5-12.4c5.1-7.2,8.6-15.2,13.1-22.7c2.6-4.2,4.9-8.7,7.2-13.1c2.3-4.4,5.2-8.6,7.5-13.1
			c2.8-5.4,6.1-10.6,8.7-16.2c1.8-3.9,4.4-7.5,6.6-11.3c0.7-1.2,1.1-2.7,1.9-3.9c4.7-7.4,8.5-15.3,13.1-22.8c2.7-4.3,5-9,7.5-13.5
			c2.7-4.8,5.3-9.6,8-14.4c2.7-4.8,5.2-9.3,7.7-14c3.8-7.1,7.5-14.3,12-21.1c0.5-0.7,1.2-1.3,1.8-1.9h121.4c0.9,1.7-1.6,2-0.9,3.4
			c-5,7.2-8.6,15.2-13.1,22.7c-2.7,4.5-5.2,9.3-7.7,14c-2.1,4-4.4,7.9-6.8,11.8c-2.1,3.4-3.8,7.1-5.8,10.6c-2.7,5-5.5,9.9-8.3,14.8
			c-3.8,6.6-6.8,13.6-11.4,19.8c-0.7,1-0.9,2.4-1.5,3.5c-2.8,5.1-5.8,10.1-8.7,15.2c-2.6,4.6-5.1,9.4-7.7,14s-5,9.4-7.8,14
			c-1.7,2.7-3.1,5.6-4.6,8.5c-2.7,5-5.5,9.9-8.3,14.8c-3.9,6.6-7.5,13.2-11.2,19.9c-2.3,4-4.2,8.3-6.6,12.3
			c-4.5,7.5-8.3,15.4-13,22.8c-2.4,3.8-4.4,7.9-6.6,11.8c-2.2,3.9-4.5,7.9-6.8,11.8c-1.7,3-2.7,6.4-2.6,9.8c0,1.9,1.2,3.4,2.5,4.7
			c1,1,2,2,3.2,3.2c1.6,0,3.5,0.1,5.4,0c11.2-0.3,22.2,1.8,33.4,1c1.4-0.1,2.7,0,3.9,0c1.9-1.4,2.2-3.6,3.1-5.2
			c2.4-3.8,4.5-7.8,6.4-11.9c1.4-3.3,3.6-6.1,4.8-9.5c1.1-3.4,3.3-6.3,4.9-9.4c1.6-3.1,2.8-6.5,4.6-9.6c2.3-4.1,3.5-8.8,6.9-12.2
			c0.6-4.3,3.9-7.4,5.3-11.3c1.4-4,3.8-7.4,5.7-11.2c1-1.9,2.1-3.7,3.1-5.5c1.2-2,2.6-4.1,2.6-6.8c0-1.4,1.2-2.9,2-4.3
			c6.6-12.7,13.1-25.5,19.8-38.2c1.7-3.3,3.5-6.6,5-9.9c1.5-3.3,4.5-5.7,4.4-9.6c2.2-1.3,2.2-4.3,4.2-5.8c1.5-2.7,3.9-3.7,6.9-3.7
			c27.2-0.1,54.3-0.7,81.5,0.3c10.2,0.4,20.3,0.4,30.5,0.9L429.1,162.1z"/>
		<path class="st57" d="M429.1,161.1c2.1-0.3,2.4-2.4,3-3.7c14.7-30,29.8-59.9,44.8-89.8c1.3-2.7,3.1-4.9,4.4-7.4h326.5
			c-2.4,4-3.9,7.9-6.3,11.5c-2.4,3.8-4.3,7.9-6.7,11.8c-3.3,5.3-6,11.1-9.1,16.6c-2,3.5-4,7-5.8,10.6c-2.4,4.6-5.2,9-7.8,13.5
			c-2.2,3.9-4.4,7.9-6.5,11.8c-3.9,7.3-7.8,14.5-11.8,21.7c-0.6,1.1-1.9,1.9-2.1,3.3c-14.8,0.1-29.6,1.6-44.4,1.3
			c-16-0.3-31.9-0.2-47.9,0c-5,0.1-9.8-1.2-14.7-1.1c-4.9,0-10.1,0-15.1,0c-2.3,1.6-2.9,4.4-4.2,6.6c-1.7,2.9-3.5,5.8-5.1,8.8
			c-3.8,6.9-7.9,13.8-11.9,20.7c-2.9,5.1-6,10.3-8.5,15.7c-2,4.1-4.4,7.9-6.7,11.8c-2.1,3.4-3.9,7.1-5.8,10.6
			c-2.7,4.9-5.4,9.9-8.3,14.8c-3.9,6.6-7.4,13.3-11.2,19.9c-2.6,4.4-5.1,9-7.5,13.5c-2.1,4.2-4.4,8.3-7,12.2c-0.7,1-0.9,2.4-1.5,3.5
			c-2.4,4.2-4.6,8.6-7.3,12.6c-2.7,4-4.4,8.3-6.8,12.3c-2.1,3.4-3.9,7.1-5.9,10.5c-3.4,5.9-6.4,12-10,17.8
			c-2.7,4.4-5.2,8.9-7.4,13.5c-2,4.1-4.2,8-6.7,11.8c-1.7,2.8-3,5.7-4.7,8.5c-2.9,4.8-5.5,9.9-8.2,14.8c-3.1,5.6-6,11.5-9.7,16.8
			c-2.7,3.7-6.6,6.2-11.1,7c-2.4,0.6-4.9,0.8-7.4,0.9c-34.9,0-69.8,0-104.7,0h-3.1c1.4-3,2.3-5.9,3.9-8.1c1.2-1.8,2.2-3.6,3.1-5.5
			c4.6-8.2,8.7-16.7,14-24.4c1.2-1.7,1.6-3.9,2.6-5.7c4.4-7.4,8.2-15.1,12.7-22.4c2.3-3.7,4.2-7.6,6.3-11.5
			c3.1-5.6,6.4-11.3,9.5-16.9c2.2-4.1,4.4-8.3,6.6-12.3c2.9-5.2,5.9-10.4,8.9-15.6c2.6-4.6,5.1-9.3,7.7-14c2.6-4.6,4.8-9.5,7.9-14
			c1.8-2.6,3-5.7,4.6-8.5c2.7-4.9,5.5-9.9,8.3-14.8c4.3-7.2,8.2-14.7,12.3-22c2.6-4.7,5.1-9.8,7.8-14.4c3.4-5.9,6.5-11.9,10-17.8
			c4.2-7.1,8.2-14.3,12.1-21.5c2.7-4.9,5.6-9.7,7.9-14.6c-0.6-1-1.2-1-1.6-0.8c-3.1,1.4-6.3,1-9.5,1c-21.7,0-43.4,0-65.1,0
			c-0.3-0.2-0.5-0.5-0.3-0.7C428.8,161.1,429,161.1,429.1,161.1z"/>
		<path class="st58" d="M429.1,161.1v1h-117c-1.1,0.5-1.5,1.9-2.8,2.1c-0.5-1.3,1-2.1,1-3.3c-0.1-0.9-1.1-1.2-1.5-1.9h-2.1
			c-3.1,3-5.9,6.2-6.8,10.6c-2.7,2.5-2.9,6.8-6.3,8.4v2.9l-3.9,3.7c-0.1,1-0.2,1.5-0.3,2c-0.3,2.1-2.6,3-3,5c-0.3,2-0.6,3.9-2.2,5.3
			c-0.7,0.5-1.1,1.3-1.1,2.2c-0.1,2.6-1.9,3.8-4.2,4.6c-1.4-1.7-0.3-3.3,0.5-4.8c2.3-4.3,4.3-8.6,6.7-12.8
			c6.3-11.5,11.9-23.4,18.8-35c10.2,0,20.3,0.1,30.5-0.1c7.9-0.1,15.8,0.7,23.7-0.5H425c-0.2,1.7-1.5,0.8-2.6,1.1
			c-0.7,3.6-3.9,3.6-6.7,4c-2.8,0.2-5.5,0.2-8.3,0.1c-3.8,0-7.7-0.5-11.5,1.5c0.4,1,1.4,1.7,2.5,1.6c0.7,0,1.6-0.3,2,0.1
			c3.1,2.9,7,1.9,10.6,2C417.1,161.1,423.1,161.1,429.1,161.1z"/>
		<path class="st59" d="M759.4,171.5c-1-0.4-2.6,1-3.1-1c2.3-3.9,4.7-7.7,7-11.7c3.5-6.2,6.8-12.5,10.3-18.6
			c4.7-8.1,8.6-16.7,14-24.4c1.2-4.6,5.1-7.9,6.3-12.5c5-7.2,8.5-15.3,13.1-22.7c2.1-3.2,4-6.6,5.7-10.1c1.9-3.9,4.1-7.7,6.6-11.3
			c1.1-1.6,2-3.3,2.7-5.1c0.4-1.3,1.5-1.8,2.1-2.8c-0.1-0.1-0.2-0.2-0.3-0.4c-0.1-0.1-0.3-0.2-0.4-0.2H474v-1.1h322
			c2.7-1.8,5.7-0.8,8.6-1c6.5-0.6,13.1,1.2,19.5-1h2.7c1.9,2.4-2.3,4.3-0.1,6.6c-4,2.4-4.2,7.3-7.7,9.5c0.2,3.2-2,5.2-4,7.2
			c-0.5,1.4,0.5,3.1-1,4.3c-1.8,1.3-1.6,3.8-3.1,5.6c-1,1.3-2.6,2.8-2.7,5.1c-0.1,1.8-1.7,3.9-3.2,5.3c-1.6,1.6-2.3,3.6-3.3,5.4
			s-2.4,3.1-2.4,5.3c0,0.3-0.2,0.6-0.4,0.8c-2.7,1.3-2.5,4.6-4.3,6.6c-1.5,1.9-2.6,4.1-3.3,6.4c-0.8,2.5-2.3,4.7-4.4,6.3
			c0,0.9,0.2,1.9-0.1,2.3c-2.7,2.8-3.1,6.7-5.4,9.8c-2.1,2.8-3.4,6.3-5.3,9.2c-0.8,1.3-1.9,2.2-1.8,4c0,0.5-0.6,1.2-1,1.6
			c-3.3,3.6-4.7,8.1-6.7,12.4C764.4,164.8,762.2,168.3,759.4,171.5z"/>
		<path class="st60" d="M286.4,187.1c0.1,2.5-1.8,4.1-2.6,6.2c-1.3,3.6-3.9,6.6-4.7,10.5c-2.4,0.7-0.4,2.9-1.5,4.3
			c-0.9,1.2-2.6,2.5-2.5,3.5c0.3,2.4-1.7,3.1-2.4,4.9c-0.8,1.6-1.8,3.1-2.9,4.6c-2.2,3.4-3.6,7.2-5.7,10.6c-3.5,6-5.5,12.8-9.9,18.3
			c-0.6,3.6-2.7,6.5-4.3,9.7c-4.3,8.3-8.8,16.5-12.7,24.9c-1.4,3-3.1,6-4.8,8.9c-1.7,3-3,5.7-4.4,8.6c-1.4,2.9-3.1,6-4.7,9
			c0,0.1-0.3,0-0.5,0c-0.5-0.1-1-0.5-1-1c-0.1-2.5,1.8-4.1,2.6-6.2c0.9-2.4,2.8-4.4,3.5-6.8c0.7-2.4,2.5-4.1,3.4-6.4
			c1.3-3.3,2.9-6.4,4.4-9.6c1.4-3.2,3.1-6.3,4.8-9.4c6.1-10.4,10.7-21.6,16.7-32.1c3.1-5.4,5.1-11.5,8.3-16.8
			c3.9-6.5,6.6-13.6,10.8-19.9c0.3-3.2,2.6-5.5,3.9-8.2c1.4-2.9,2.6-6.1,5-8.5C286.3,185.8,286.7,186.1,286.4,187.1z"/>
		<path class="st61" d="M207.2,278.8c0.5-0.1,0.9,0.2,1,0.7c0,0.1,0,0.2,0,0.3c-1,4.6-3.6,8.5-5.9,12.5c-1.9,3.3-3.5,6.8-5.7,10
			c-1.7,2.6-3,5.5-5.4,7.5c-0.8,0.7-0.7,1.5-0.7,2.3c-0.8,0.9-2.2,0.9-3.1,0.1c0,0,0,0-0.1-0.1c4.1-6.4,8.2-12.7,11.8-19.4
			C201.8,288.1,203.8,283,207.2,278.8z"/>
		<path class="st62" d="M187.4,312.1H219c1-0.5,1.5-1.9,2.8-2.1c0.5-0.1,0.9,0.2,1,0.7c0,0.1,0,0.2,0,0.3c0.2,1.2-0.4,2.4-1.5,2.9
			h-35C186.6,313.2,187.6,313,187.4,312.1z"/>
		<path class="st21" d="M755.3,170.4c-0.2,1.7-1.5,1-2.4,1c-12.4,0-24.9,0-37.3,0h-15.5c0.2-1.7,1.5-1,2.4-1c12.4,0,24.9,0,37.3,0
			H755.3z"/>
		<path class="st63" d="M286.4,167.3c1.6,0.1,0.9,1.3,1,2.1c-2.2,0.3,0,3.1-2,3.6c0.3,1.8-2.4,2.2-2.1,3.8c0.4,2.3-1.9,3-2.5,4.7
			c-0.6,1.5-0.2,3.9-2.4,4.7c-0.8,3.7-3.5,6.4-4.9,10c-1.3,3.5-3.3,6.6-4.9,9.9c-4.3,8.8-9.4,17.2-13.7,26c-2.4,4.9-5,9.7-7.8,14.5
			c-2.5,4.3-4.4,9-6.9,13.3c-2.4,4.2-4.6,8.4-6.6,12.9c-0.7,1.6-2.2,2.5-2.7,4.1c-0.5,0.1-0.9-0.2-1-0.7c0-0.1,0-0.2,0-0.3
			c-0.2-2.1,1.1-3.8,2.2-5.3c4.2-6.2,6.7-13.2,10.3-19.7c4.8-8.6,9-17.4,13.7-26c2.5-4.7,4.8-9.5,7.4-14.1c1.7-2.9,3.4-5.9,4.9-8.9
			c2-4.2,4.5-8.2,6.4-12.4c1.4-3.1,3.9-5.7,5-8.8C281.6,175.6,284.7,171.8,286.4,167.3z"/>
		<path class="st64" d="M286.4,187.1c0.1-0.5-0.2-0.9-0.7-1c-0.1,0-0.2,0-0.3,0c0-2.6,1.8-4.5,3-6.6c1.3-2.3,2.9-4.3,3.3-7
			c1.4,0.1,0.9-1.2,1.2-1.8c3-5.7,6.5-11.1,9.2-17c0.9-1.5,1.9-2.9,3.1-4.2c0.2,1.7,1.5,1,2.4,1c12.8,0,25.6,0,38.3,0h13.5
			c-0.4,2-1.9,1-2.9,1c-13.5,0.1-27,0.1-40.5,0.1h-10.2c-4.2,8.1-8.4,16-12.5,24c-1.6,3.1-3.1,6.3-4.7,9.5
			C288.2,186.1,287.4,186.9,286.4,187.1z"/>
		<path class="st65" d="M40.5,612.2c0-1.4-1.1-1-1.9-1c-4.2,0-8.3,0-12.7,0V490.3c1.3-0.8,2.7-0.5,4.1-0.5c41.1,0,82.1,0,123.2,0
			c1.4,0,2.8-0.3,4.1,0.5h671c0.8,1.3,0.5,2.7,0.5,4.1c0,37.9,0,75.9,0,113.8c0,1.4,0.3,2.8-0.5,4.1H40.5z"/>
		<path class="st66" d="M331.2,623.7c0.1-0.4-0.1-0.9-0.5-1c-0.1,0-0.2,0-0.3,0c-1.4-0.1-2.8,0-4.2,0h-89.8c-0.1-0.4,0.1-0.9,0.5-1
			c0.1,0,0.2,0,0.3,0c1.4-0.1,2.8,0,4.2,0h317.2c1.4,0,2.8,0,4.2,0c0.4,0,0.8,0.3,0.9,0.7c0,0.1,0,0.2,0,0.3
			c-41.9,0-83.9,0-125.8,0.1c-1.4,0-3.4-1.3-4.5,1H331.2z"/>
		<path class="st39" d="M157.2,490.3H25.9c-0.1-0.4,0.1-0.9,0.5-1c0.1,0,0.2,0,0.3,0c1.2-0.1,2.4,0,3.6,0c40.8,0,81.6,0,122.3,0.1
			C154.2,489.3,156.2,488,157.2,490.3z"/>
		<path class="st39" d="M828.2,612.2V490.3c0.4-0.1,0.9,0.1,1,0.5c0,0.1,0,0.2,0,0.3c0.1,1.2,0,2.4,0,3.6c0,37.7,0,75.3-0.1,113
			C829.2,609.2,830.5,611.2,828.2,612.2z"/>
		<path class="st21" d="M635.5,176.7c0.2-0.8-0.8-1-1-1.6c0.7-0.8,1.6-0.4,2.4-0.4c20,0,39.9,0,59.8,0c14.4,2.2,28.9,0.5,43.3,1
			c4.8,0.2,9.4-1.8,14.1-1.1c1.1,0.2,1.9-1.6,3.2-1c-2.3,4.2-5.9,5.3-10.5,5.3c-30.7-0.1-61.3,0-92-0.1c-2.1,0-4.2,0.7-6.4-0.8
			c-1.6-1.1-4.1,0.3-6.3-1C640.4,175.9,637.7,176.7,635.5,176.7z"/>
		<path class="st67" d="M824,47.5c0,1-1,1.3-1.5,2.1h-26.7v-2.1H824z"/>
		<path class="st68" d="M262.4,552.6v-53.9h16.3c0.6,0.7,1.7,1.2,1.5,2.5c-0.1,0.7-0.1,1.4,0,2.1c0,24.6,0,49.3,0,73.9
			c0,1.7,0.4,3.5-1.6,4.6h-17.7c-12.3-17.3-23.7-35.4-37.1-52.2c-0.2,0.1-0.5,0.3-0.7,0.4c-0.1,0.1-0.2,0.3-0.2,0.4
			c0,17,0,34,0,51.2h-17.2c-0.8-4.3-1.1-61.8-0.4-81.7c0.7-1,1.9-1.5,3.1-1.5c5,0.1,10,0,15,0c2.9,2.3,4.1,5.7,6.3,8.5
			c4.5,5.7,8.1,12,12.5,17.7c2.3,2.9,4.2,6.3,6.3,9.4c2.9,4.2,5.6,8.5,8.5,12.6c0.9,1.4,1.7,2.8,2.4,4.2
			C259.9,552,260.5,553.2,262.4,552.6z"/>
		<path class="st69" d="M394.4,604.8c-4.2,0.6-7.8,2.6-11.8,2.2c-3.8-0.4-7.8,1-11.7-1.7c-1-3.5-2.2-7.4-2.1-11.8h12.2
			c5.7-2.5,8.3-6.6,9.5-11.6c-1.7-4.1-3.3-8.2-5.1-12.4c-1.2-2.8-2.5-5.5-3.6-8.3c-2.5-6.3-5.3-12.4-8-18.5
			c-3-6.9-5.9-13.9-9.6-20.9h19.8c4.5,13.5,10.6,26.5,14.5,40.3c0.1,0.4,0.6,0.8,1.2,1.4c3.9-6.8,5.8-14.2,8.6-21.2
			c2.8-7,5.5-13.7,7.5-20.7H434c0.5,0.8,0.2,1.3-0.1,1.9c-4,7.7-7.3,15.7-10,24c-1,2.7-2.1,5.4-3.4,7.9c-3.1,6.7-5.7,13.6-8.6,20.4
			c-2.1,4.9-4,9.8-6.3,14.6c-1.8,4.1-4.5,7.8-7.8,10.8C396.7,602.3,395.6,603.5,394.4,604.8z"/>
		<path class="st68" d="M358.2,581.9H342c-0.9-1.4-1.5-3.1-1.6-4.8c-3.3-1.1-5.7,1-7.9,2.3c-3.8,2.2-7.6,3.8-12,3.8
			c-2.3,0-4.5,0.1-6.8,0c-7.4-0.6-13.7-3.1-16.9-10.6c-0.1-0.3-0.4-0.5-0.5-0.8c-0.8-3.8-1.1-7.8,0.1-11.5c2.3-6.9,8-9.6,14.3-11.4
			c2.2-0.6,4.8-0.4,6.6-1.5c2-1.3,4.6,0.7,6.1-1.6c2.7,0.4,5.3-0.7,7.9-0.9c2.3-0.1,4.4-1,6-2.6c0-0.9,0.1-1.9,0-2.9
			c0-3.5-2.9-6.2-6.3-6.2c0,0-0.1,0-0.1,0c-4.3-0.1-8.6,0-12.9,0c-0.7,2.8-3.3,4-4.8,6.1l-1.4,0.2c-0.1,0-4.7,0-4.9,0
			c-2.4-0.7-4.8-1.7-7.2-0.8c-2.3-2.7-2.3-3.6-1-5.8c1.3-2.2,2.9-4.2,4.9-5.8c1.5-1.3,3.3-2.1,4.9-3.2c2.3-1.7,5.4-1.2,7.6-3
			c0.5-0.4,1.7-0.1,2.5-0.1c5.6,0,11.1-0.4,16.7,0.1c6.9,0.7,13.6,2.4,17.4,9.4c0.3,0.5,0.7,0.9,1.1,1.2c2.4,13.1,1,26,1.4,38.9
			c0.2,2.4,0.9,4.8,2.2,6.9C358.1,578.5,358.4,580.2,358.2,581.9z"/>
		<path class="st68" d="M502.3,575.2c0.2,2.5,3.9,3.4,2.6,6.8c-6-0.5-12.1,1-18-1c-0.5-2-2.2-3.2-1.2-5.8c-3,1.7-5.5,2.6-7.4,4.2
			c-3.3,2.6-7.4,3.9-11.6,3.7c-2.1-0.1-4.2,0.1-6.3,0c-8.1-0.3-14-4.2-17.7-11.5c-1.7-3.4-1.5-6.9-0.5-10.3c0.8-3,1.4-6.6,5.4-7.6
			c3.2-4.5,8.5-4.7,13.1-6c4.5-1.1,9.1-1.9,13.7-2.4c2.2-0.3,4.4-0.9,6.5-1.8c1.8-0.8,2.3-2.3,3.6-2.8c-0.2-2.8-1.2-4.8-3.1-5.9
			c-1.6-1.2-3.5-1.8-5.5-1.8c-0.4,0-0.7,0-1,0h-10.2l-7.4,7.4c-3.6-1.1-7.5-3.1-11.6-2.1c-1.8-1.4-2.7-2.5-1-4.8
			c1.6-2.2,6.3-7.4,8.8-8.9c4.6-2.9,10-4.4,15.4-4.2c4.2,0.2,8.3,0.1,12.5,0c2.6-0.1,5.3,0.6,7.6,1.9c1.7,0.9,3.7,1.1,5.4,2.1
			c4.9,2.9,6.3,7.6,6.8,12.7c0.3,2.9,0.1,5.9,0.1,8.8c0,5,0.3,10.1-0.1,15.1C500.6,566.2,502.8,570.5,502.3,575.2z"/>
		<path class="st68" d="M626.3,568.2c2.3,1.7,4.2,3.1,7.2,1.4c1.1-0.7,3.1-0.1,4.9-0.1v12.2c-1.8,1.5-4,1.3-6.2,1.3
			c-4.5,0-9,0-13.5,0c-1.3-0.7-2.5-1.4-3.8-2.1c-3.8-1.9-6.2-5.7-6.3-9.9c-0.3-4-1.6-7.9-1.2-12.1c0.4-4,0.1-8,0.1-12v-12.8h-8.2
			V523c2-1.4,2-1.4,8.8-1.4c1.8-3.8-0.9-7.5-0.6-11.2c6-3.6,11.9-6.9,18.3-10.3c0.7,2.9,0.3,5.3,0.4,7.6c-0.1,2.4-0.1,4.9,0.1,7.3
			c0.3,2.1-3.2,4.4,0.7,6.5h10.5v12.5h-11.1V568.2z"/>
		<path class="st70" d="M518.9,521.7h16.5v7.6c4.8-2.1,6.5-7.1,11.8-8.7c4.1,0.2,9.3-1,13.7,2c1.8,2.8-0.5,5-0.7,7.4
			c-0.2,2.1-2.1,3.9-3.3,6.1h-4.4l-1.8-1.8c-1.4,0-3.1-0.4-4.4,0.1c-5.3,1.8-7.8,5.8-8.8,11.2c-2.1,12-0.3,24-1.2,36.2h-17.4V521.7z
			"/>
		<path class="st70" d="M571,521.7h17.4V582c-2.7,0.1-5.6,0-8.5,0H571V521.7z"/>
		<path class="st71" d="M588.5,498.8v14.2H571c-0.5-2.1-0.1-4.5-0.2-6.9c-0.1-2.4,0-4.8,0-7.4L588.5,498.8z"/>
		<path class="st72" d="M313.5,566.6v-5.8c1.6-2.9,4.7-3.8,7.5-4.4c5.3-1.1,10.5-3.1,16.5-2.4c0,2.6-0.1,5.1,0,7.7
			c0.1,1.8-0.6,3.6-1.9,4.9c-2.7,3.2-6.7,5.1-10.9,5.1C320.1,571.8,316.3,570.8,313.5,566.6z"/>
		<path class="st73" d="M483.6,564.6c-0.5,0.5-0.7,0.7-1,1c-7.5,7.8-6.7,5.8-14.7,6c-3.7,0.1-6.4-1.2-7.8-4.9
			c-0.1-0.3-0.5-0.5-0.7-0.8c-0.1-2.2-0.5-4.4,2.2-7c6.1-3.6,14-5,22.7-5.1c0,2.1,0,3.9,0,5.8S482.3,562.8,483.6,564.6z"/>
	</g>
</g>
</svg>
